<?xml version="1.0" standalone="no"?>
 <!DOCTYPE svg PUBLIC "-//W3C//DTD SVG 1.1//EN" 
 "http://www.w3.org/Graphics/SVG/1.1/DTD/svg11.dtd"> 
<svg
  xmlns:svg="http://www.w3.org/2000/svg"
  xmlns="http://www.w3.org/2000/svg"
  xmlns:xlink="http://www.w3.org/1999/xlink"
  version="1.1"
  width="297.0022mm" height="210.0072mm" viewBox="0.0000 0.0000 297.0022 210.0072">
<title>SVG Image created as TDS-2-F_Silkscreen.svg date 2024/07/09 23:01:17 </title>
  <desc>Image generated by PCBNEW </desc>
<g style="fill:#000000; fill-opacity:1.0000;stroke:#000000; stroke-opacity:1.0000;
stroke-linecap:round; stroke-linejoin:round;"
 transform="translate(0 0) scale(1 1)">
</g>
<g style="fill:none; 
stroke:#000000; stroke-width:0.1500; stroke-opacity:1; 
stroke-linecap:round; stroke-linejoin:round;">
<path d="M177.0022 166.0072
L285.0022 166.0072
L285.0022 198.0072
L177.0022 198.0072
L177.0022 166.0072
" />
</g>
<g style="fill:none; 
stroke:#000000; stroke-width:0.1500; stroke-opacity:1; 
stroke-linecap:round; stroke-linejoin:round;">
<path d="M10.0000 10.0000
L287.0022 10.0000
L287.0022 200.0072
L10.0000 200.0072
L10.0000 10.0000
" />
</g>
<g style="fill:none; 
stroke:#000000; stroke-width:0.1500; stroke-opacity:1; 
stroke-linecap:round; stroke-linejoin:round;">
<path d="M12.0000 12.0000
L285.0022 12.0000
L285.0022 198.0072
L12.0000 198.0072
L12.0000 12.0000
" />
</g>
<g style="fill:none; 
stroke:#000000; stroke-width:0.1500; stroke-opacity:1; 
stroke-linecap:round; stroke-linejoin:round;">
<path d="M60.0000 12.0000
L60.0000 10.0000
" />
</g>
<g style="fill:none; 
stroke:#000000; stroke-width:0.1500; stroke-opacity:1; 
stroke-linecap:round; stroke-linejoin:round;">
<path d="M110.0000 12.0000
L110.0000 10.0000
" />
</g>
<g style="fill:none; 
stroke:#000000; stroke-width:0.1500; stroke-opacity:1; 
stroke-linecap:round; stroke-linejoin:round;">
<path d="M160.0000 12.0000
L160.0000 10.0000
" />
</g>
<g style="fill:none; 
stroke:#000000; stroke-width:0.1500; stroke-opacity:1; 
stroke-linecap:round; stroke-linejoin:round;">
<path d="M210.0000 12.0000
L210.0000 10.0000
" />
</g>
<g style="fill:none; 
stroke:#000000; stroke-width:0.1500; stroke-opacity:1; 
stroke-linecap:round; stroke-linejoin:round;">
<path d="M260.0000 12.0000
L260.0000 10.0000
" />
</g>
<g style="fill:none; 
stroke:#000000; stroke-width:0.1500; stroke-opacity:1; 
stroke-linecap:round; stroke-linejoin:round;">
<text x="35.0000" y="11.6500"
textLength="1.4281" font-size="1.7333" lengthAdjust="spacingAndGlyphs"
text-anchor="start" opacity="0">1</text>
<g class="stroked-text"><desc>1</desc>
<path d="M36.0892 11.5936
L35.3463 11.5936
" />
<path d="M35.7177 11.5936
L35.7177 10.2936
" />
<path d="M35.7177 10.2936
L35.5939 10.4793
" />
<path d="M35.5939 10.4793
L35.4701 10.6031
" />
<path d="M35.4701 10.6031
L35.3463 10.6650
" />
</g></g>
<g style="fill:none; 
stroke:#000000; stroke-width:0.1500; stroke-opacity:1; 
stroke-linecap:round; stroke-linejoin:round;">
<text x="85.0000" y="11.6500"
textLength="1.4281" font-size="1.7333" lengthAdjust="spacingAndGlyphs"
text-anchor="start" opacity="0">2</text>
<g class="stroked-text"><desc>2</desc>
<path d="M85.3463 10.4174
L85.4082 10.3555
" />
<path d="M85.4082 10.3555
L85.5320 10.2936
" />
<path d="M85.5320 10.2936
L85.8415 10.2936
" />
<path d="M85.8415 10.2936
L85.9654 10.3555
" />
<path d="M85.9654 10.3555
L86.0273 10.4174
" />
<path d="M86.0273 10.4174
L86.0892 10.5412
" />
<path d="M86.0892 10.5412
L86.0892 10.6650
" />
<path d="M86.0892 10.6650
L86.0273 10.8507
" />
<path d="M86.0273 10.8507
L85.2844 11.5936
" />
<path d="M85.2844 11.5936
L86.0892 11.5936
" />
</g></g>
<g style="fill:none; 
stroke:#000000; stroke-width:0.1500; stroke-opacity:1; 
stroke-linecap:round; stroke-linejoin:round;">
<text x="135.0000" y="11.6500"
textLength="1.4281" font-size="1.7333" lengthAdjust="spacingAndGlyphs"
text-anchor="start" opacity="0">3</text>
<g class="stroked-text"><desc>3</desc>
<path d="M135.2844 10.2936
L136.0892 10.2936
" />
<path d="M136.0892 10.2936
L135.6558 10.7888
" />
<path d="M135.6558 10.7888
L135.8415 10.7888
" />
<path d="M135.8415 10.7888
L135.9654 10.8507
" />
<path d="M135.9654 10.8507
L136.0273 10.9127
" />
<path d="M136.0273 10.9127
L136.0892 11.0365
" />
<path d="M136.0892 11.0365
L136.0892 11.3460
" />
<path d="M136.0892 11.3460
L136.0273 11.4698
" />
<path d="M136.0273 11.4698
L135.9654 11.5317
" />
<path d="M135.9654 11.5317
L135.8415 11.5936
" />
<path d="M135.8415 11.5936
L135.4701 11.5936
" />
<path d="M135.4701 11.5936
L135.3463 11.5317
" />
<path d="M135.3463 11.5317
L135.2844 11.4698
" />
</g></g>
<g style="fill:none; 
stroke:#000000; stroke-width:0.1500; stroke-opacity:1; 
stroke-linecap:round; stroke-linejoin:round;">
<text x="185.0000" y="11.6500"
textLength="1.4281" font-size="1.7333" lengthAdjust="spacingAndGlyphs"
text-anchor="start" opacity="0">4</text>
<g class="stroked-text"><desc>4</desc>
<path d="M185.9654 10.7269
L185.9654 11.5936
" />
<path d="M185.6558 10.2317
L185.3463 11.1603
" />
<path d="M185.3463 11.1603
L186.1511 11.1603
" />
</g></g>
<g style="fill:none; 
stroke:#000000; stroke-width:0.1500; stroke-opacity:1; 
stroke-linecap:round; stroke-linejoin:round;">
<text x="235.0000" y="11.6500"
textLength="1.4281" font-size="1.7333" lengthAdjust="spacingAndGlyphs"
text-anchor="start" opacity="0">5</text>
<g class="stroked-text"><desc>5</desc>
<path d="M236.0273 10.2936
L235.4082 10.2936
" />
<path d="M235.4082 10.2936
L235.3463 10.9127
" />
<path d="M235.3463 10.9127
L235.4082 10.8507
" />
<path d="M235.4082 10.8507
L235.5320 10.7888
" />
<path d="M235.5320 10.7888
L235.8415 10.7888
" />
<path d="M235.8415 10.7888
L235.9654 10.8507
" />
<path d="M235.9654 10.8507
L236.0273 10.9127
" />
<path d="M236.0273 10.9127
L236.0892 11.0365
" />
<path d="M236.0892 11.0365
L236.0892 11.3460
" />
<path d="M236.0892 11.3460
L236.0273 11.4698
" />
<path d="M236.0273 11.4698
L235.9654 11.5317
" />
<path d="M235.9654 11.5317
L235.8415 11.5936
" />
<path d="M235.8415 11.5936
L235.5320 11.5936
" />
<path d="M235.5320 11.5936
L235.4082 11.5317
" />
<path d="M235.4082 11.5317
L235.3463 11.4698
" />
</g></g>
<g style="fill:none; 
stroke:#000000; stroke-width:0.1500; stroke-opacity:1; 
stroke-linecap:round; stroke-linejoin:round;">
<text x="285.0000" y="11.6500"
textLength="1.4281" font-size="1.7333" lengthAdjust="spacingAndGlyphs"
text-anchor="start" opacity="0">6</text>
<g class="stroked-text"><desc>6</desc>
<path d="M285.9654 10.2936
L285.7177 10.2936
" />
<path d="M285.7177 10.2936
L285.5939 10.3555
" />
<path d="M285.5939 10.3555
L285.5320 10.4174
" />
<path d="M285.5320 10.4174
L285.4082 10.6031
" />
<path d="M285.4082 10.6031
L285.3463 10.8507
" />
<path d="M285.3463 10.8507
L285.3463 11.3460
" />
<path d="M285.3463 11.3460
L285.4082 11.4698
" />
<path d="M285.4082 11.4698
L285.4701 11.5317
" />
<path d="M285.4701 11.5317
L285.5939 11.5936
" />
<path d="M285.5939 11.5936
L285.8415 11.5936
" />
<path d="M285.8415 11.5936
L285.9654 11.5317
" />
<path d="M285.9654 11.5317
L286.0273 11.4698
" />
<path d="M286.0273 11.4698
L286.0892 11.3460
" />
<path d="M286.0892 11.3460
L286.0892 11.0365
" />
<path d="M286.0892 11.0365
L286.0273 10.9127
" />
<path d="M286.0273 10.9127
L285.9654 10.8507
" />
<path d="M285.9654 10.8507
L285.8415 10.7888
" />
<path d="M285.8415 10.7888
L285.5939 10.7888
" />
<path d="M285.5939 10.7888
L285.4701 10.8507
" />
<path d="M285.4701 10.8507
L285.4082 10.9127
" />
<path d="M285.4082 10.9127
L285.3463 11.0365
" />
</g></g>
<g style="fill:none; 
stroke:#000000; stroke-width:0.1500; stroke-opacity:1; 
stroke-linecap:round; stroke-linejoin:round;">
<path d="M60.0000 198.0072
L60.0000 200.0072
" />
</g>
<g style="fill:none; 
stroke:#000000; stroke-width:0.1500; stroke-opacity:1; 
stroke-linecap:round; stroke-linejoin:round;">
<path d="M110.0000 198.0072
L110.0000 200.0072
" />
</g>
<g style="fill:none; 
stroke:#000000; stroke-width:0.1500; stroke-opacity:1; 
stroke-linecap:round; stroke-linejoin:round;">
<path d="M160.0000 198.0072
L160.0000 200.0072
" />
</g>
<g style="fill:none; 
stroke:#000000; stroke-width:0.1500; stroke-opacity:1; 
stroke-linecap:round; stroke-linejoin:round;">
<path d="M210.0000 198.0072
L210.0000 200.0072
" />
</g>
<g style="fill:none; 
stroke:#000000; stroke-width:0.1500; stroke-opacity:1; 
stroke-linecap:round; stroke-linejoin:round;">
<path d="M260.0000 198.0072
L260.0000 200.0072
" />
</g>
<g style="fill:none; 
stroke:#000000; stroke-width:0.1500; stroke-opacity:1; 
stroke-linecap:round; stroke-linejoin:round;">
<text x="35.0000" y="199.6572"
textLength="1.4281" font-size="1.7333" lengthAdjust="spacingAndGlyphs"
text-anchor="start" opacity="0">1</text>
<g class="stroked-text"><desc>1</desc>
<path d="M36.0892 199.6008
L35.3463 199.6008
" />
<path d="M35.7177 199.6008
L35.7177 198.3008
" />
<path d="M35.7177 198.3008
L35.5939 198.4865
" />
<path d="M35.5939 198.4865
L35.4701 198.6103
" />
<path d="M35.4701 198.6103
L35.3463 198.6722
" />
</g></g>
<g style="fill:none; 
stroke:#000000; stroke-width:0.1500; stroke-opacity:1; 
stroke-linecap:round; stroke-linejoin:round;">
<text x="85.0000" y="199.6572"
textLength="1.4281" font-size="1.7333" lengthAdjust="spacingAndGlyphs"
text-anchor="start" opacity="0">2</text>
<g class="stroked-text"><desc>2</desc>
<path d="M85.3463 198.4246
L85.4082 198.3627
" />
<path d="M85.4082 198.3627
L85.5320 198.3008
" />
<path d="M85.5320 198.3008
L85.8415 198.3008
" />
<path d="M85.8415 198.3008
L85.9654 198.3627
" />
<path d="M85.9654 198.3627
L86.0273 198.4246
" />
<path d="M86.0273 198.4246
L86.0892 198.5484
" />
<path d="M86.0892 198.5484
L86.0892 198.6722
" />
<path d="M86.0892 198.6722
L86.0273 198.8579
" />
<path d="M86.0273 198.8579
L85.2844 199.6008
" />
<path d="M85.2844 199.6008
L86.0892 199.6008
" />
</g></g>
<g style="fill:none; 
stroke:#000000; stroke-width:0.1500; stroke-opacity:1; 
stroke-linecap:round; stroke-linejoin:round;">
<text x="135.0000" y="199.6572"
textLength="1.4281" font-size="1.7333" lengthAdjust="spacingAndGlyphs"
text-anchor="start" opacity="0">3</text>
<g class="stroked-text"><desc>3</desc>
<path d="M135.2844 198.3008
L136.0892 198.3008
" />
<path d="M136.0892 198.3008
L135.6558 198.7960
" />
<path d="M135.6558 198.7960
L135.8415 198.7960
" />
<path d="M135.8415 198.7960
L135.9654 198.8579
" />
<path d="M135.9654 198.8579
L136.0273 198.9199
" />
<path d="M136.0273 198.9199
L136.0892 199.0437
" />
<path d="M136.0892 199.0437
L136.0892 199.3532
" />
<path d="M136.0892 199.3532
L136.0273 199.4770
" />
<path d="M136.0273 199.4770
L135.9654 199.5389
" />
<path d="M135.9654 199.5389
L135.8415 199.6008
" />
<path d="M135.8415 199.6008
L135.4701 199.6008
" />
<path d="M135.4701 199.6008
L135.3463 199.5389
" />
<path d="M135.3463 199.5389
L135.2844 199.4770
" />
</g></g>
<g style="fill:none; 
stroke:#000000; stroke-width:0.1500; stroke-opacity:1; 
stroke-linecap:round; stroke-linejoin:round;">
<text x="185.0000" y="199.6572"
textLength="1.4281" font-size="1.7333" lengthAdjust="spacingAndGlyphs"
text-anchor="start" opacity="0">4</text>
<g class="stroked-text"><desc>4</desc>
<path d="M185.9654 198.7341
L185.9654 199.6008
" />
<path d="M185.6558 198.2389
L185.3463 199.1675
" />
<path d="M185.3463 199.1675
L186.1511 199.1675
" />
</g></g>
<g style="fill:none; 
stroke:#000000; stroke-width:0.1500; stroke-opacity:1; 
stroke-linecap:round; stroke-linejoin:round;">
<text x="235.0000" y="199.6572"
textLength="1.4281" font-size="1.7333" lengthAdjust="spacingAndGlyphs"
text-anchor="start" opacity="0">5</text>
<g class="stroked-text"><desc>5</desc>
<path d="M236.0273 198.3008
L235.4082 198.3008
" />
<path d="M235.4082 198.3008
L235.3463 198.9199
" />
<path d="M235.3463 198.9199
L235.4082 198.8579
" />
<path d="M235.4082 198.8579
L235.5320 198.7960
" />
<path d="M235.5320 198.7960
L235.8415 198.7960
" />
<path d="M235.8415 198.7960
L235.9654 198.8579
" />
<path d="M235.9654 198.8579
L236.0273 198.9199
" />
<path d="M236.0273 198.9199
L236.0892 199.0437
" />
<path d="M236.0892 199.0437
L236.0892 199.3532
" />
<path d="M236.0892 199.3532
L236.0273 199.4770
" />
<path d="M236.0273 199.4770
L235.9654 199.5389
" />
<path d="M235.9654 199.5389
L235.8415 199.6008
" />
<path d="M235.8415 199.6008
L235.5320 199.6008
" />
<path d="M235.5320 199.6008
L235.4082 199.5389
" />
<path d="M235.4082 199.5389
L235.3463 199.4770
" />
</g></g>
<g style="fill:none; 
stroke:#000000; stroke-width:0.1500; stroke-opacity:1; 
stroke-linecap:round; stroke-linejoin:round;">
<text x="285.0000" y="199.6572"
textLength="1.4281" font-size="1.7333" lengthAdjust="spacingAndGlyphs"
text-anchor="start" opacity="0">6</text>
<g class="stroked-text"><desc>6</desc>
<path d="M285.9654 198.3008
L285.7177 198.3008
" />
<path d="M285.7177 198.3008
L285.5939 198.3627
" />
<path d="M285.5939 198.3627
L285.5320 198.4246
" />
<path d="M285.5320 198.4246
L285.4082 198.6103
" />
<path d="M285.4082 198.6103
L285.3463 198.8579
" />
<path d="M285.3463 198.8579
L285.3463 199.3532
" />
<path d="M285.3463 199.3532
L285.4082 199.4770
" />
<path d="M285.4082 199.4770
L285.4701 199.5389
" />
<path d="M285.4701 199.5389
L285.5939 199.6008
" />
<path d="M285.5939 199.6008
L285.8415 199.6008
" />
<path d="M285.8415 199.6008
L285.9654 199.5389
" />
<path d="M285.9654 199.5389
L286.0273 199.4770
" />
<path d="M286.0273 199.4770
L286.0892 199.3532
" />
<path d="M286.0892 199.3532
L286.0892 199.0437
" />
<path d="M286.0892 199.0437
L286.0273 198.9199
" />
<path d="M286.0273 198.9199
L285.9654 198.8579
" />
<path d="M285.9654 198.8579
L285.8415 198.7960
" />
<path d="M285.8415 198.7960
L285.5939 198.7960
" />
<path d="M285.5939 198.7960
L285.4701 198.8579
" />
<path d="M285.4701 198.8579
L285.4082 198.9199
" />
<path d="M285.4082 198.9199
L285.3463 199.0437
" />
</g></g>
<g style="fill:none; 
stroke:#000000; stroke-width:0.1500; stroke-opacity:1; 
stroke-linecap:round; stroke-linejoin:round;">
<path d="M10.0000 60.0000
L12.0000 60.0000
" />
</g>
<g style="fill:none; 
stroke:#000000; stroke-width:0.1500; stroke-opacity:1; 
stroke-linecap:round; stroke-linejoin:round;">
<path d="M10.0000 110.0000
L12.0000 110.0000
" />
</g>
<g style="fill:none; 
stroke:#000000; stroke-width:0.1500; stroke-opacity:1; 
stroke-linecap:round; stroke-linejoin:round;">
<path d="M10.0000 160.0000
L12.0000 160.0000
" />
</g>
<g style="fill:none; 
stroke:#000000; stroke-width:0.1500; stroke-opacity:1; 
stroke-linecap:round; stroke-linejoin:round;">
<text x="11.0000" y="35.6500"
textLength="1.3043" font-size="1.7333" lengthAdjust="spacingAndGlyphs"
text-anchor="middle" opacity="0">A</text>
<g class="stroked-text"><desc>A</desc>
<path d="M10.6905 35.2222
L11.3095 35.2222
" />
<path d="M10.5667 35.5936
L11.0000 34.2936
" />
<path d="M11.0000 34.2936
L11.4333 35.5936
" />
</g></g>
<g style="fill:none; 
stroke:#000000; stroke-width:0.1500; stroke-opacity:1; 
stroke-linecap:round; stroke-linejoin:round;">
<text x="11.0000" y="85.6500"
textLength="1.4900" font-size="1.7333" lengthAdjust="spacingAndGlyphs"
text-anchor="middle" opacity="0">B</text>
<g class="stroked-text"><desc>B</desc>
<path d="M11.0929 84.9127
L11.2786 84.9746
" />
<path d="M11.2786 84.9746
L11.3405 85.0365
" />
<path d="M11.3405 85.0365
L11.4024 85.1603
" />
<path d="M11.4024 85.1603
L11.4024 85.3460
" />
<path d="M11.4024 85.3460
L11.3405 85.4698
" />
<path d="M11.3405 85.4698
L11.2786 85.5317
" />
<path d="M11.2786 85.5317
L11.1548 85.5936
" />
<path d="M11.1548 85.5936
L10.6595 85.5936
" />
<path d="M10.6595 85.5936
L10.6595 84.2936
" />
<path d="M10.6595 84.2936
L11.0929 84.2936
" />
<path d="M11.0929 84.2936
L11.2167 84.3555
" />
<path d="M11.2167 84.3555
L11.2786 84.4174
" />
<path d="M11.2786 84.4174
L11.3405 84.5412
" />
<path d="M11.3405 84.5412
L11.3405 84.6650
" />
<path d="M11.3405 84.6650
L11.2786 84.7888
" />
<path d="M11.2786 84.7888
L11.2167 84.8507
" />
<path d="M11.2167 84.8507
L11.0929 84.9127
" />
<path d="M11.0929 84.9127
L10.6595 84.9127
" />
</g></g>
<g style="fill:none; 
stroke:#000000; stroke-width:0.1500; stroke-opacity:1; 
stroke-linecap:round; stroke-linejoin:round;">
<text x="11.0000" y="135.6500"
textLength="1.4900" font-size="1.7333" lengthAdjust="spacingAndGlyphs"
text-anchor="middle" opacity="0">C</text>
<g class="stroked-text"><desc>C</desc>
<path d="M11.4024 135.4698
L11.3405 135.5317
" />
<path d="M11.3405 135.5317
L11.1548 135.5936
" />
<path d="M11.1548 135.5936
L11.0310 135.5936
" />
<path d="M11.0310 135.5936
L10.8452 135.5317
" />
<path d="M10.8452 135.5317
L10.7214 135.4079
" />
<path d="M10.7214 135.4079
L10.6595 135.2841
" />
<path d="M10.6595 135.2841
L10.5976 135.0365
" />
<path d="M10.5976 135.0365
L10.5976 134.8507
" />
<path d="M10.5976 134.8507
L10.6595 134.6031
" />
<path d="M10.6595 134.6031
L10.7214 134.4793
" />
<path d="M10.7214 134.4793
L10.8452 134.3555
" />
<path d="M10.8452 134.3555
L11.0310 134.2936
" />
<path d="M11.0310 134.2936
L11.1548 134.2936
" />
<path d="M11.1548 134.2936
L11.3405 134.3555
" />
<path d="M11.3405 134.3555
L11.4024 134.4174
" />
</g></g>
<g style="fill:none; 
stroke:#000000; stroke-width:0.1500; stroke-opacity:1; 
stroke-linecap:round; stroke-linejoin:round;">
<text x="11.0000" y="185.6500"
textLength="1.4900" font-size="1.7333" lengthAdjust="spacingAndGlyphs"
text-anchor="middle" opacity="0">D</text>
<g class="stroked-text"><desc>D</desc>
<path d="M10.6595 185.5936
L10.6595 184.2936
" />
<path d="M10.6595 184.2936
L10.9690 184.2936
" />
<path d="M10.9690 184.2936
L11.1548 184.3555
" />
<path d="M11.1548 184.3555
L11.2786 184.4793
" />
<path d="M11.2786 184.4793
L11.3405 184.6031
" />
<path d="M11.3405 184.6031
L11.4024 184.8507
" />
<path d="M11.4024 184.8507
L11.4024 185.0365
" />
<path d="M11.4024 185.0365
L11.3405 185.2841
" />
<path d="M11.3405 185.2841
L11.2786 185.4079
" />
<path d="M11.2786 185.4079
L11.1548 185.5317
" />
<path d="M11.1548 185.5317
L10.9690 185.5936
" />
<path d="M10.9690 185.5936
L10.6595 185.5936
" />
</g></g>
<g style="fill:none; 
stroke:#000000; stroke-width:0.1500; stroke-opacity:1; 
stroke-linecap:round; stroke-linejoin:round;">
<path d="M287.0022 60.0000
L285.0022 60.0000
" />
</g>
<g style="fill:none; 
stroke:#000000; stroke-width:0.1500; stroke-opacity:1; 
stroke-linecap:round; stroke-linejoin:round;">
<path d="M287.0022 110.0000
L285.0022 110.0000
" />
</g>
<g style="fill:none; 
stroke:#000000; stroke-width:0.1500; stroke-opacity:1; 
stroke-linecap:round; stroke-linejoin:round;">
<path d="M287.0022 160.0000
L285.0022 160.0000
" />
</g>
<g style="fill:none; 
stroke:#000000; stroke-width:0.1500; stroke-opacity:1; 
stroke-linecap:round; stroke-linejoin:round;">
<text x="286.0022" y="35.6500"
textLength="1.3043" font-size="1.7333" lengthAdjust="spacingAndGlyphs"
text-anchor="middle" opacity="0">A</text>
<g class="stroked-text"><desc>A</desc>
<path d="M285.6927 35.2222
L286.3117 35.2222
" />
<path d="M285.5689 35.5936
L286.0022 34.2936
" />
<path d="M286.0022 34.2936
L286.4355 35.5936
" />
</g></g>
<g style="fill:none; 
stroke:#000000; stroke-width:0.1500; stroke-opacity:1; 
stroke-linecap:round; stroke-linejoin:round;">
<text x="286.0022" y="85.6500"
textLength="1.4900" font-size="1.7333" lengthAdjust="spacingAndGlyphs"
text-anchor="middle" opacity="0">B</text>
<g class="stroked-text"><desc>B</desc>
<path d="M286.0951 84.9127
L286.2808 84.9746
" />
<path d="M286.2808 84.9746
L286.3427 85.0365
" />
<path d="M286.3427 85.0365
L286.4046 85.1603
" />
<path d="M286.4046 85.1603
L286.4046 85.3460
" />
<path d="M286.4046 85.3460
L286.3427 85.4698
" />
<path d="M286.3427 85.4698
L286.2808 85.5317
" />
<path d="M286.2808 85.5317
L286.1570 85.5936
" />
<path d="M286.1570 85.5936
L285.6617 85.5936
" />
<path d="M285.6617 85.5936
L285.6617 84.2936
" />
<path d="M285.6617 84.2936
L286.0951 84.2936
" />
<path d="M286.0951 84.2936
L286.2189 84.3555
" />
<path d="M286.2189 84.3555
L286.2808 84.4174
" />
<path d="M286.2808 84.4174
L286.3427 84.5412
" />
<path d="M286.3427 84.5412
L286.3427 84.6650
" />
<path d="M286.3427 84.6650
L286.2808 84.7888
" />
<path d="M286.2808 84.7888
L286.2189 84.8507
" />
<path d="M286.2189 84.8507
L286.0951 84.9127
" />
<path d="M286.0951 84.9127
L285.6617 84.9127
" />
</g></g>
<g style="fill:none; 
stroke:#000000; stroke-width:0.1500; stroke-opacity:1; 
stroke-linecap:round; stroke-linejoin:round;">
<text x="286.0022" y="135.6500"
textLength="1.4900" font-size="1.7333" lengthAdjust="spacingAndGlyphs"
text-anchor="middle" opacity="0">C</text>
<g class="stroked-text"><desc>C</desc>
<path d="M286.4046 135.4698
L286.3427 135.5317
" />
<path d="M286.3427 135.5317
L286.1570 135.5936
" />
<path d="M286.1570 135.5936
L286.0332 135.5936
" />
<path d="M286.0332 135.5936
L285.8474 135.5317
" />
<path d="M285.8474 135.5317
L285.7236 135.4079
" />
<path d="M285.7236 135.4079
L285.6617 135.2841
" />
<path d="M285.6617 135.2841
L285.5998 135.0365
" />
<path d="M285.5998 135.0365
L285.5998 134.8507
" />
<path d="M285.5998 134.8507
L285.6617 134.6031
" />
<path d="M285.6617 134.6031
L285.7236 134.4793
" />
<path d="M285.7236 134.4793
L285.8474 134.3555
" />
<path d="M285.8474 134.3555
L286.0332 134.2936
" />
<path d="M286.0332 134.2936
L286.1570 134.2936
" />
<path d="M286.1570 134.2936
L286.3427 134.3555
" />
<path d="M286.3427 134.3555
L286.4046 134.4174
" />
</g></g>
<g style="fill:none; 
stroke:#000000; stroke-width:0.1500; stroke-opacity:1; 
stroke-linecap:round; stroke-linejoin:round;">
<text x="286.0022" y="185.6500"
textLength="1.4900" font-size="1.7333" lengthAdjust="spacingAndGlyphs"
text-anchor="middle" opacity="0">D</text>
<g class="stroked-text"><desc>D</desc>
<path d="M285.6617 185.5936
L285.6617 184.2936
" />
<path d="M285.6617 184.2936
L285.9712 184.2936
" />
<path d="M285.9712 184.2936
L286.1570 184.3555
" />
<path d="M286.1570 184.3555
L286.2808 184.4793
" />
<path d="M286.2808 184.4793
L286.3427 184.6031
" />
<path d="M286.3427 184.6031
L286.4046 184.8507
" />
<path d="M286.4046 184.8507
L286.4046 185.0365
" />
<path d="M286.4046 185.0365
L286.3427 185.2841
" />
<path d="M286.3427 185.2841
L286.2808 185.4079
" />
<path d="M286.2808 185.4079
L286.1570 185.5317
" />
<path d="M286.1570 185.5317
L285.9712 185.5936
" />
<path d="M285.9712 185.5936
L285.6617 185.5936
" />
</g></g>
<g style="fill:none; 
stroke:#000000; stroke-width:0.1500; stroke-opacity:1; 
stroke-linecap:round; stroke-linejoin:round;">
<text x="200.0022" y="193.8572"
textLength="7.0071" font-size="2.0000" lengthAdjust="spacingAndGlyphs"
text-anchor="start" opacity="0">Date: </text>
<g class="stroked-text"><desc>Date: </desc>
<path d="M200.4580 193.7933
L200.4580 192.2933
" />
<path d="M200.4580 192.2933
L200.8152 192.2933
" />
<path d="M200.8152 192.2933
L201.0295 192.3648
" />
<path d="M201.0295 192.3648
L201.1723 192.5076
" />
<path d="M201.1723 192.5076
L201.2437 192.6505
" />
<path d="M201.2437 192.6505
L201.3152 192.9362
" />
<path d="M201.3152 192.9362
L201.3152 193.1505
" />
<path d="M201.3152 193.1505
L201.2437 193.4362
" />
<path d="M201.2437 193.4362
L201.1723 193.5790
" />
<path d="M201.1723 193.5790
L201.0295 193.7219
" />
<path d="M201.0295 193.7219
L200.8152 193.7933
" />
<path d="M200.8152 193.7933
L200.4580 193.7933
" />
<path d="M202.6009 193.7933
L202.6009 193.0076
" />
<path d="M202.6009 193.0076
L202.5295 192.8648
" />
<path d="M202.5295 192.8648
L202.3866 192.7933
" />
<path d="M202.3866 192.7933
L202.1009 192.7933
" />
<path d="M202.1009 192.7933
L201.9580 192.8648
" />
<path d="M202.6009 193.7219
L202.4580 193.7933
" />
<path d="M202.4580 193.7933
L202.1009 193.7933
" />
<path d="M202.1009 193.7933
L201.9580 193.7219
" />
<path d="M201.9580 193.7219
L201.8866 193.5790
" />
<path d="M201.8866 193.5790
L201.8866 193.4362
" />
<path d="M201.8866 193.4362
L201.9580 193.2933
" />
<path d="M201.9580 193.2933
L202.1009 193.2219
" />
<path d="M202.1009 193.2219
L202.4580 193.2219
" />
<path d="M202.4580 193.2219
L202.6009 193.1505
" />
<path d="M203.1009 192.7933
L203.6723 192.7933
" />
<path d="M203.3152 192.2933
L203.3152 193.5790
" />
<path d="M203.3152 193.5790
L203.3866 193.7219
" />
<path d="M203.3866 193.7219
L203.5295 193.7933
" />
<path d="M203.5295 193.7933
L203.6723 193.7933
" />
<path d="M204.7437 193.7219
L204.6009 193.7933
" />
<path d="M204.6009 193.7933
L204.3152 193.7933
" />
<path d="M204.3152 193.7933
L204.1723 193.7219
" />
<path d="M204.1723 193.7219
L204.1009 193.5790
" />
<path d="M204.1009 193.5790
L204.1009 193.0076
" />
<path d="M204.1009 193.0076
L204.1723 192.8648
" />
<path d="M204.1723 192.8648
L204.3152 192.7933
" />
<path d="M204.3152 192.7933
L204.6009 192.7933
" />
<path d="M204.6009 192.7933
L204.7437 192.8648
" />
<path d="M204.7437 192.8648
L204.8152 193.0076
" />
<path d="M204.8152 193.0076
L204.8152 193.1505
" />
<path d="M204.8152 193.1505
L204.1009 193.2933
" />
<path d="M205.4580 193.6505
L205.5295 193.7219
" />
<path d="M205.5295 193.7219
L205.4580 193.7933
" />
<path d="M205.4580 193.7933
L205.3866 193.7219
" />
<path d="M205.3866 193.7219
L205.4580 193.6505
" />
<path d="M205.4580 193.6505
L205.4580 193.7933
" />
<path d="M205.4580 192.8648
L205.5295 192.9362
" />
<path d="M205.5295 192.9362
L205.4580 193.0076
" />
<path d="M205.4580 193.0076
L205.3866 192.9362
" />
<path d="M205.3866 192.9362
L205.4580 192.8648
" />
<path d="M205.4580 192.8648
L205.4580 193.0076
" />
</g></g>
<g style="fill:none; 
stroke:#000000; stroke-width:0.1500; stroke-opacity:1; 
stroke-linecap:round; stroke-linejoin:round;">
<path d="M177.0022 194.5072
L285.0022 194.5072
" />
</g>
<g style="fill:none; 
stroke:#000000; stroke-width:0.1500; stroke-opacity:1; 
stroke-linecap:round; stroke-linejoin:round;">
<text x="178.0022" y="196.6572"
textLength="20.8643" font-size="2.0000" lengthAdjust="spacingAndGlyphs"
text-anchor="start" opacity="0">KiCad E.D.A. 8.0.3</text>
<g class="stroked-text"><desc>KiCad E.D.A. 8.0.3</desc>
<path d="M178.4580 196.5933
L178.4580 195.0933
" />
<path d="M179.3152 196.5933
L178.6723 195.7362
" />
<path d="M179.3152 195.0933
L178.4580 195.9505
" />
<path d="M179.9580 196.5933
L179.9580 195.5933
" />
<path d="M179.9580 195.0933
L179.8866 195.1648
" />
<path d="M179.8866 195.1648
L179.9580 195.2362
" />
<path d="M179.9580 195.2362
L180.0295 195.1648
" />
<path d="M180.0295 195.1648
L179.9580 195.0933
" />
<path d="M179.9580 195.0933
L179.9580 195.2362
" />
<path d="M181.5295 196.4505
L181.4580 196.5219
" />
<path d="M181.4580 196.5219
L181.2437 196.5933
" />
<path d="M181.2437 196.5933
L181.1009 196.5933
" />
<path d="M181.1009 196.5933
L180.8866 196.5219
" />
<path d="M180.8866 196.5219
L180.7437 196.3790
" />
<path d="M180.7437 196.3790
L180.6723 196.2362
" />
<path d="M180.6723 196.2362
L180.6009 195.9505
" />
<path d="M180.6009 195.9505
L180.6009 195.7362
" />
<path d="M180.6009 195.7362
L180.6723 195.4505
" />
<path d="M180.6723 195.4505
L180.7437 195.3076
" />
<path d="M180.7437 195.3076
L180.8866 195.1648
" />
<path d="M180.8866 195.1648
L181.1009 195.0933
" />
<path d="M181.1009 195.0933
L181.2437 195.0933
" />
<path d="M181.2437 195.0933
L181.4580 195.1648
" />
<path d="M181.4580 195.1648
L181.5295 195.2362
" />
<path d="M182.8152 196.5933
L182.8152 195.8076
" />
<path d="M182.8152 195.8076
L182.7437 195.6648
" />
<path d="M182.7437 195.6648
L182.6009 195.5933
" />
<path d="M182.6009 195.5933
L182.3152 195.5933
" />
<path d="M182.3152 195.5933
L182.1723 195.6648
" />
<path d="M182.8152 196.5219
L182.6723 196.5933
" />
<path d="M182.6723 196.5933
L182.3152 196.5933
" />
<path d="M182.3152 196.5933
L182.1723 196.5219
" />
<path d="M182.1723 196.5219
L182.1009 196.3790
" />
<path d="M182.1009 196.3790
L182.1009 196.2362
" />
<path d="M182.1009 196.2362
L182.1723 196.0933
" />
<path d="M182.1723 196.0933
L182.3152 196.0219
" />
<path d="M182.3152 196.0219
L182.6723 196.0219
" />
<path d="M182.6723 196.0219
L182.8152 195.9505
" />
<path d="M184.1723 196.5933
L184.1723 195.0933
" />
<path d="M184.1723 196.5219
L184.0295 196.5933
" />
<path d="M184.0295 196.5933
L183.7437 196.5933
" />
<path d="M183.7437 196.5933
L183.6009 196.5219
" />
<path d="M183.6009 196.5219
L183.5295 196.4505
" />
<path d="M183.5295 196.4505
L183.4580 196.3076
" />
<path d="M183.4580 196.3076
L183.4580 195.8790
" />
<path d="M183.4580 195.8790
L183.5295 195.7362
" />
<path d="M183.5295 195.7362
L183.6009 195.6648
" />
<path d="M183.6009 195.6648
L183.7437 195.5933
" />
<path d="M183.7437 195.5933
L184.0295 195.5933
" />
<path d="M184.0295 195.5933
L184.1723 195.6648
" />
<path d="M186.0295 195.8076
L186.5295 195.8076
" />
<path d="M186.7437 196.5933
L186.0295 196.5933
" />
<path d="M186.0295 196.5933
L186.0295 195.0933
" />
<path d="M186.0295 195.0933
L186.7437 195.0933
" />
<path d="M187.3866 196.4505
L187.4580 196.5219
" />
<path d="M187.4580 196.5219
L187.3866 196.5933
" />
<path d="M187.3866 196.5933
L187.3152 196.5219
" />
<path d="M187.3152 196.5219
L187.3866 196.4505
" />
<path d="M187.3866 196.4505
L187.3866 196.5933
" />
<path d="M188.1009 196.5933
L188.1009 195.0933
" />
<path d="M188.1009 195.0933
L188.4580 195.0933
" />
<path d="M188.4580 195.0933
L188.6723 195.1648
" />
<path d="M188.6723 195.1648
L188.8152 195.3076
" />
<path d="M188.8152 195.3076
L188.8866 195.4505
" />
<path d="M188.8866 195.4505
L188.9580 195.7362
" />
<path d="M188.9580 195.7362
L188.9580 195.9505
" />
<path d="M188.9580 195.9505
L188.8866 196.2362
" />
<path d="M188.8866 196.2362
L188.8152 196.3790
" />
<path d="M188.8152 196.3790
L188.6723 196.5219
" />
<path d="M188.6723 196.5219
L188.4580 196.5933
" />
<path d="M188.4580 196.5933
L188.1009 196.5933
" />
<path d="M189.6009 196.4505
L189.6723 196.5219
" />
<path d="M189.6723 196.5219
L189.6009 196.5933
" />
<path d="M189.6009 196.5933
L189.5295 196.5219
" />
<path d="M189.5295 196.5219
L189.6009 196.4505
" />
<path d="M189.6009 196.4505
L189.6009 196.5933
" />
<path d="M190.2437 196.1648
L190.9580 196.1648
" />
<path d="M190.1009 196.5933
L190.6009 195.0933
" />
<path d="M190.6009 195.0933
L191.1009 196.5933
" />
<path d="M191.6009 196.4505
L191.6723 196.5219
" />
<path d="M191.6723 196.5219
L191.6009 196.5933
" />
<path d="M191.6009 196.5933
L191.5295 196.5219
" />
<path d="M191.5295 196.5219
L191.6009 196.4505
" />
<path d="M191.6009 196.4505
L191.6009 196.5933
" />
<path d="M193.6723 195.7362
L193.5295 195.6648
" />
<path d="M193.5295 195.6648
L193.4580 195.5933
" />
<path d="M193.4580 195.5933
L193.3866 195.4505
" />
<path d="M193.3866 195.4505
L193.3866 195.3790
" />
<path d="M193.3866 195.3790
L193.4580 195.2362
" />
<path d="M193.4580 195.2362
L193.5295 195.1648
" />
<path d="M193.5295 195.1648
L193.6723 195.0933
" />
<path d="M193.6723 195.0933
L193.9580 195.0933
" />
<path d="M193.9580 195.0933
L194.1009 195.1648
" />
<path d="M194.1009 195.1648
L194.1723 195.2362
" />
<path d="M194.1723 195.2362
L194.2437 195.3790
" />
<path d="M194.2437 195.3790
L194.2437 195.4505
" />
<path d="M194.2437 195.4505
L194.1723 195.5933
" />
<path d="M194.1723 195.5933
L194.1009 195.6648
" />
<path d="M194.1009 195.6648
L193.9580 195.7362
" />
<path d="M193.9580 195.7362
L193.6723 195.7362
" />
<path d="M193.6723 195.7362
L193.5295 195.8076
" />
<path d="M193.5295 195.8076
L193.4580 195.8790
" />
<path d="M193.4580 195.8790
L193.3866 196.0219
" />
<path d="M193.3866 196.0219
L193.3866 196.3076
" />
<path d="M193.3866 196.3076
L193.4580 196.4505
" />
<path d="M193.4580 196.4505
L193.5295 196.5219
" />
<path d="M193.5295 196.5219
L193.6723 196.5933
" />
<path d="M193.6723 196.5933
L193.9580 196.5933
" />
<path d="M193.9580 196.5933
L194.1009 196.5219
" />
<path d="M194.1009 196.5219
L194.1723 196.4505
" />
<path d="M194.1723 196.4505
L194.2437 196.3076
" />
<path d="M194.2437 196.3076
L194.2437 196.0219
" />
<path d="M194.2437 196.0219
L194.1723 195.8790
" />
<path d="M194.1723 195.8790
L194.1009 195.8076
" />
<path d="M194.1009 195.8076
L193.9580 195.7362
" />
<path d="M194.8866 196.4505
L194.9580 196.5219
" />
<path d="M194.9580 196.5219
L194.8866 196.5933
" />
<path d="M194.8866 196.5933
L194.8152 196.5219
" />
<path d="M194.8152 196.5219
L194.8866 196.4505
" />
<path d="M194.8866 196.4505
L194.8866 196.5933
" />
<path d="M195.8866 195.0933
L196.0295 195.0933
" />
<path d="M196.0295 195.0933
L196.1723 195.1648
" />
<path d="M196.1723 195.1648
L196.2437 195.2362
" />
<path d="M196.2437 195.2362
L196.3152 195.3790
" />
<path d="M196.3152 195.3790
L196.3866 195.6648
" />
<path d="M196.3866 195.6648
L196.3866 196.0219
" />
<path d="M196.3866 196.0219
L196.3152 196.3076
" />
<path d="M196.3152 196.3076
L196.2437 196.4505
" />
<path d="M196.2437 196.4505
L196.1723 196.5219
" />
<path d="M196.1723 196.5219
L196.0295 196.5933
" />
<path d="M196.0295 196.5933
L195.8866 196.5933
" />
<path d="M195.8866 196.5933
L195.7437 196.5219
" />
<path d="M195.7437 196.5219
L195.6723 196.4505
" />
<path d="M195.6723 196.4505
L195.6009 196.3076
" />
<path d="M195.6009 196.3076
L195.5295 196.0219
" />
<path d="M195.5295 196.0219
L195.5295 195.6648
" />
<path d="M195.5295 195.6648
L195.6009 195.3790
" />
<path d="M195.6009 195.3790
L195.6723 195.2362
" />
<path d="M195.6723 195.2362
L195.7437 195.1648
" />
<path d="M195.7437 195.1648
L195.8866 195.0933
" />
<path d="M197.0295 196.4505
L197.1009 196.5219
" />
<path d="M197.1009 196.5219
L197.0295 196.5933
" />
<path d="M197.0295 196.5933
L196.9580 196.5219
" />
<path d="M196.9580 196.5219
L197.0295 196.4505
" />
<path d="M197.0295 196.4505
L197.0295 196.5933
" />
<path d="M197.6009 195.0933
L198.5295 195.0933
" />
<path d="M198.5295 195.0933
L198.0295 195.6648
" />
<path d="M198.0295 195.6648
L198.2437 195.6648
" />
<path d="M198.2437 195.6648
L198.3866 195.7362
" />
<path d="M198.3866 195.7362
L198.4580 195.8076
" />
<path d="M198.4580 195.8076
L198.5295 195.9505
" />
<path d="M198.5295 195.9505
L198.5295 196.3076
" />
<path d="M198.5295 196.3076
L198.4580 196.4505
" />
<path d="M198.4580 196.4505
L198.3866 196.5219
" />
<path d="M198.3866 196.5219
L198.2437 196.5933
" />
<path d="M198.2437 196.5933
L197.8152 196.5933
" />
<path d="M197.8152 196.5933
L197.6723 196.5219
" />
<path d="M197.6723 196.5219
L197.6009 196.4505
" />
</g></g>
<g style="fill:none; 
stroke:#000000; stroke-width:0.1500; stroke-opacity:1; 
stroke-linecap:round; stroke-linejoin:round;">
<path d="M177.0022 191.5072
L285.0022 191.5072
" />
</g>
<g style="fill:none; 
stroke:#000000; stroke-width:0.3000; stroke-opacity:1; 
stroke-linecap:round; stroke-linejoin:round;">
<text x="263.0022" y="193.8572"
textLength="6.3857" font-size="2.0000" lengthAdjust="spacingAndGlyphs"
text-anchor="start" opacity="0">Rev: </text>
<g class="stroked-text"><desc>Rev: </desc>
<path d="M264.4139 193.7855
L263.9139 193.0712
" />
<path d="M263.5567 193.7855
L263.5567 192.2855
" />
<path d="M263.5567 192.2855
L264.1281 192.2855
" />
<path d="M264.1281 192.2855
L264.2710 192.3570
" />
<path d="M264.2710 192.3570
L264.3424 192.4284
" />
<path d="M264.3424 192.4284
L264.4139 192.5712
" />
<path d="M264.4139 192.5712
L264.4139 192.7855
" />
<path d="M264.4139 192.7855
L264.3424 192.9284
" />
<path d="M264.3424 192.9284
L264.2710 192.9998
" />
<path d="M264.2710 192.9998
L264.1281 193.0712
" />
<path d="M264.1281 193.0712
L263.5567 193.0712
" />
<path d="M265.6281 193.7141
L265.4853 193.7855
" />
<path d="M265.4853 193.7855
L265.1996 193.7855
" />
<path d="M265.1996 193.7855
L265.0567 193.7141
" />
<path d="M265.0567 193.7141
L264.9853 193.5712
" />
<path d="M264.9853 193.5712
L264.9853 192.9998
" />
<path d="M264.9853 192.9998
L265.0567 192.8570
" />
<path d="M265.0567 192.8570
L265.1996 192.7855
" />
<path d="M265.1996 192.7855
L265.4853 192.7855
" />
<path d="M265.4853 192.7855
L265.6281 192.8570
" />
<path d="M265.6281 192.8570
L265.6996 192.9998
" />
<path d="M265.6996 192.9998
L265.6996 193.1427
" />
<path d="M265.6996 193.1427
L264.9853 193.2855
" />
<path d="M266.1996 192.7855
L266.5567 193.7855
" />
<path d="M266.5567 193.7855
L266.9139 192.7855
" />
<path d="M267.4853 193.6427
L267.5567 193.7141
" />
<path d="M267.5567 193.7141
L267.4853 193.7855
" />
<path d="M267.4853 193.7855
L267.4139 193.7141
" />
<path d="M267.4139 193.7141
L267.4853 193.6427
" />
<path d="M267.4853 193.6427
L267.4853 193.7855
" />
<path d="M267.4853 192.8570
L267.5567 192.9284
" />
<path d="M267.5567 192.9284
L267.4853 192.9998
" />
<path d="M267.4853 192.9998
L267.4139 192.9284
" />
<path d="M267.4139 192.9284
L267.4853 192.8570
" />
<path d="M267.4853 192.8570
L267.4853 192.9998
" />
</g></g>
<g style="fill:none; 
stroke:#000000; stroke-width:0.1500; stroke-opacity:1; 
stroke-linecap:round; stroke-linejoin:round;">
<text x="178.0022" y="193.8572"
textLength="9.3643" font-size="2.0000" lengthAdjust="spacingAndGlyphs"
text-anchor="start" opacity="0">Size: A4</text>
<g class="stroked-text"><desc>Size: A4</desc>
<path d="M178.3866 193.7219
L178.6009 193.7933
" />
<path d="M178.6009 193.7933
L178.9580 193.7933
" />
<path d="M178.9580 193.7933
L179.1009 193.7219
" />
<path d="M179.1009 193.7219
L179.1723 193.6505
" />
<path d="M179.1723 193.6505
L179.2437 193.5076
" />
<path d="M179.2437 193.5076
L179.2437 193.3648
" />
<path d="M179.2437 193.3648
L179.1723 193.2219
" />
<path d="M179.1723 193.2219
L179.1009 193.1505
" />
<path d="M179.1009 193.1505
L178.9580 193.0790
" />
<path d="M178.9580 193.0790
L178.6723 193.0076
" />
<path d="M178.6723 193.0076
L178.5295 192.9362
" />
<path d="M178.5295 192.9362
L178.4580 192.8648
" />
<path d="M178.4580 192.8648
L178.3866 192.7219
" />
<path d="M178.3866 192.7219
L178.3866 192.5790
" />
<path d="M178.3866 192.5790
L178.4580 192.4362
" />
<path d="M178.4580 192.4362
L178.5295 192.3648
" />
<path d="M178.5295 192.3648
L178.6723 192.2933
" />
<path d="M178.6723 192.2933
L179.0295 192.2933
" />
<path d="M179.0295 192.2933
L179.2437 192.3648
" />
<path d="M179.8866 193.7933
L179.8866 192.7933
" />
<path d="M179.8866 192.2933
L179.8152 192.3648
" />
<path d="M179.8152 192.3648
L179.8866 192.4362
" />
<path d="M179.8866 192.4362
L179.9580 192.3648
" />
<path d="M179.9580 192.3648
L179.8866 192.2933
" />
<path d="M179.8866 192.2933
L179.8866 192.4362
" />
<path d="M180.4580 192.7933
L181.2437 192.7933
" />
<path d="M181.2437 192.7933
L180.4580 193.7933
" />
<path d="M180.4580 193.7933
L181.2437 193.7933
" />
<path d="M182.3866 193.7219
L182.2437 193.7933
" />
<path d="M182.2437 193.7933
L181.9580 193.7933
" />
<path d="M181.9580 193.7933
L181.8152 193.7219
" />
<path d="M181.8152 193.7219
L181.7437 193.5790
" />
<path d="M181.7437 193.5790
L181.7437 193.0076
" />
<path d="M181.7437 193.0076
L181.8152 192.8648
" />
<path d="M181.8152 192.8648
L181.9580 192.7933
" />
<path d="M181.9580 192.7933
L182.2437 192.7933
" />
<path d="M182.2437 192.7933
L182.3866 192.8648
" />
<path d="M182.3866 192.8648
L182.4580 193.0076
" />
<path d="M182.4580 193.0076
L182.4580 193.1505
" />
<path d="M182.4580 193.1505
L181.7437 193.2933
" />
<path d="M183.1009 193.6505
L183.1723 193.7219
" />
<path d="M183.1723 193.7219
L183.1009 193.7933
" />
<path d="M183.1009 193.7933
L183.0295 193.7219
" />
<path d="M183.0295 193.7219
L183.1009 193.6505
" />
<path d="M183.1009 193.6505
L183.1009 193.7933
" />
<path d="M183.1009 192.8648
L183.1723 192.9362
" />
<path d="M183.1723 192.9362
L183.1009 193.0076
" />
<path d="M183.1009 193.0076
L183.0295 192.9362
" />
<path d="M183.0295 192.9362
L183.1009 192.8648
" />
<path d="M183.1009 192.8648
L183.1009 193.0076
" />
<path d="M184.8866 193.3648
L185.6009 193.3648
" />
<path d="M184.7437 193.7933
L185.2437 192.2933
" />
<path d="M185.2437 192.2933
L185.7437 193.7933
" />
<path d="M186.8866 192.7933
L186.8866 193.7933
" />
<path d="M186.5295 192.2219
L186.1723 193.2933
" />
<path d="M186.1723 193.2933
L187.1009 193.2933
" />
</g></g>
<g style="fill:none; 
stroke:#000000; stroke-width:0.1500; stroke-opacity:1; 
stroke-linecap:round; stroke-linejoin:round;">
<text x="263.0022" y="196.6572"
textLength="8.5071" font-size="2.0000" lengthAdjust="spacingAndGlyphs"
text-anchor="start" opacity="0">Id: 1/1</text>
<g class="stroked-text"><desc>Id: 1/1</desc>
<path d="M263.4580 196.5933
L263.4580 195.0933
" />
<path d="M264.8152 196.5933
L264.8152 195.0933
" />
<path d="M264.8152 196.5219
L264.6723 196.5933
" />
<path d="M264.6723 196.5933
L264.3866 196.5933
" />
<path d="M264.3866 196.5933
L264.2437 196.5219
" />
<path d="M264.2437 196.5219
L264.1723 196.4505
" />
<path d="M264.1723 196.4505
L264.1009 196.3076
" />
<path d="M264.1009 196.3076
L264.1009 195.8790
" />
<path d="M264.1009 195.8790
L264.1723 195.7362
" />
<path d="M264.1723 195.7362
L264.2437 195.6648
" />
<path d="M264.2437 195.6648
L264.3866 195.5933
" />
<path d="M264.3866 195.5933
L264.6723 195.5933
" />
<path d="M264.6723 195.5933
L264.8152 195.6648
" />
<path d="M265.5295 196.4505
L265.6009 196.5219
" />
<path d="M265.6009 196.5219
L265.5295 196.5933
" />
<path d="M265.5295 196.5933
L265.4580 196.5219
" />
<path d="M265.4580 196.5219
L265.5295 196.4505
" />
<path d="M265.5295 196.4505
L265.5295 196.5933
" />
<path d="M265.5295 195.6648
L265.6009 195.7362
" />
<path d="M265.6009 195.7362
L265.5295 195.8076
" />
<path d="M265.5295 195.8076
L265.4580 195.7362
" />
<path d="M265.4580 195.7362
L265.5295 195.6648
" />
<path d="M265.5295 195.6648
L265.5295 195.8076
" />
<path d="M268.1723 196.5933
L267.3152 196.5933
" />
<path d="M267.7437 196.5933
L267.7437 195.0933
" />
<path d="M267.7437 195.0933
L267.6009 195.3076
" />
<path d="M267.6009 195.3076
L267.4580 195.4505
" />
<path d="M267.4580 195.4505
L267.3152 195.5219
" />
<path d="M269.8866 195.0219
L268.6009 196.9505
" />
<path d="M271.1723 196.5933
L270.3152 196.5933
" />
<path d="M270.7437 196.5933
L270.7437 195.0933
" />
<path d="M270.7437 195.0933
L270.6009 195.3076
" />
<path d="M270.6009 195.3076
L270.4580 195.4505
" />
<path d="M270.4580 195.4505
L270.3152 195.5219
" />
</g></g>
<g style="fill:none; 
stroke:#000000; stroke-width:0.1500; stroke-opacity:1; 
stroke-linecap:round; stroke-linejoin:round;">
<path d="M177.0022 187.5072
L285.0022 187.5072
" />
</g>
<g style="fill:none; 
stroke:#000000; stroke-width:0.4000; stroke-opacity:1; 
stroke-linecap:round; stroke-linejoin:round;">
<text x="178.0022" y="190.3072"
textLength="9.6571" font-size="2.6667" lengthAdjust="spacingAndGlyphs"
text-anchor="start" opacity="0">Title: </text>
<g class="stroked-text"><desc>Title: </desc>
<path d="M178.6939 188.2116
L179.8368 188.2116
" />
<path d="M179.0154 190.2116
L179.2654 188.2116
" />
<path d="M180.2535 190.2116
L180.4201 188.8783
" />
<path d="M180.5035 188.2116
L180.3963 188.3069
" />
<path d="M180.3963 188.3069
L180.4796 188.4021
" />
<path d="M180.4796 188.4021
L180.5868 188.3069
" />
<path d="M180.5868 188.3069
L180.5035 188.2116
" />
<path d="M180.5035 188.2116
L180.4796 188.4021
" />
<path d="M181.0868 188.8783
L181.8487 188.8783
" />
<path d="M181.4558 188.2116
L181.2415 189.9259
" />
<path d="M181.2415 189.9259
L181.3130 190.1164
" />
<path d="M181.3130 190.1164
L181.4915 190.2116
" />
<path d="M181.4915 190.2116
L181.6820 190.2116
" />
<path d="M182.6344 190.2116
L182.4558 190.1164
" />
<path d="M182.4558 190.1164
L182.3844 189.9259
" />
<path d="M182.3844 189.9259
L182.5987 188.2116
" />
<path d="M184.1701 190.1164
L183.9677 190.2116
" />
<path d="M183.9677 190.2116
L183.5868 190.2116
" />
<path d="M183.5868 190.2116
L183.4082 190.1164
" />
<path d="M183.4082 190.1164
L183.3368 189.9259
" />
<path d="M183.3368 189.9259
L183.4320 189.1640
" />
<path d="M183.4320 189.1640
L183.5511 188.9735
" />
<path d="M183.5511 188.9735
L183.7535 188.8783
" />
<path d="M183.7535 188.8783
L184.1344 188.8783
" />
<path d="M184.1344 188.8783
L184.3130 188.9735
" />
<path d="M184.3130 188.9735
L184.3844 189.1640
" />
<path d="M184.3844 189.1640
L184.3606 189.3545
" />
<path d="M184.3606 189.3545
L183.3844 189.5450
" />
<path d="M185.1344 190.0212
L185.2177 190.1164
" />
<path d="M185.2177 190.1164
L185.1106 190.2116
" />
<path d="M185.1106 190.2116
L185.0273 190.1164
" />
<path d="M185.0273 190.1164
L185.1344 190.0212
" />
<path d="M185.1344 190.0212
L185.1106 190.2116
" />
<path d="M185.2654 188.9735
L185.3487 189.0688
" />
<path d="M185.3487 189.0688
L185.2415 189.1640
" />
<path d="M185.2415 189.1640
L185.1582 189.0688
" />
<path d="M185.1582 189.0688
L185.2654 188.9735
" />
<path d="M185.2654 188.9735
L185.2415 189.1640
" />
</g></g>
<g style="fill:none; 
stroke:#000000; stroke-width:0.1500; stroke-opacity:1; 
stroke-linecap:round; stroke-linejoin:round;">
<text x="178.0022" y="186.4572"
textLength="25.2214" font-size="2.0000" lengthAdjust="spacingAndGlyphs"
text-anchor="start" opacity="0">File: TDS-2.kicad_pcb</text>
<g class="stroked-text"><desc>File: TDS-2.kicad_pcb</desc>
<path d="M178.9580 185.6076
L178.4580 185.6076
" />
<path d="M178.4580 186.3933
L178.4580 184.8933
" />
<path d="M178.4580 184.8933
L179.1723 184.8933
" />
<path d="M179.7437 186.3933
L179.7437 185.3933
" />
<path d="M179.7437 184.8933
L179.6723 184.9648
" />
<path d="M179.6723 184.9648
L179.7437 185.0362
" />
<path d="M179.7437 185.0362
L179.8152 184.9648
" />
<path d="M179.8152 184.9648
L179.7437 184.8933
" />
<path d="M179.7437 184.8933
L179.7437 185.0362
" />
<path d="M180.6723 186.3933
L180.5295 186.3219
" />
<path d="M180.5295 186.3219
L180.4580 186.1790
" />
<path d="M180.4580 186.1790
L180.4580 184.8933
" />
<path d="M181.8152 186.3219
L181.6723 186.3933
" />
<path d="M181.6723 186.3933
L181.3866 186.3933
" />
<path d="M181.3866 186.3933
L181.2437 186.3219
" />
<path d="M181.2437 186.3219
L181.1723 186.1790
" />
<path d="M181.1723 186.1790
L181.1723 185.6076
" />
<path d="M181.1723 185.6076
L181.2437 185.4648
" />
<path d="M181.2437 185.4648
L181.3866 185.3933
" />
<path d="M181.3866 185.3933
L181.6723 185.3933
" />
<path d="M181.6723 185.3933
L181.8152 185.4648
" />
<path d="M181.8152 185.4648
L181.8866 185.6076
" />
<path d="M181.8866 185.6076
L181.8866 185.7505
" />
<path d="M181.8866 185.7505
L181.1723 185.8933
" />
<path d="M182.5295 186.2505
L182.6009 186.3219
" />
<path d="M182.6009 186.3219
L182.5295 186.3933
" />
<path d="M182.5295 186.3933
L182.4580 186.3219
" />
<path d="M182.4580 186.3219
L182.5295 186.2505
" />
<path d="M182.5295 186.2505
L182.5295 186.3933
" />
<path d="M182.5295 185.4648
L182.6009 185.5362
" />
<path d="M182.6009 185.5362
L182.5295 185.6076
" />
<path d="M182.5295 185.6076
L182.4580 185.5362
" />
<path d="M182.4580 185.5362
L182.5295 185.4648
" />
<path d="M182.5295 185.4648
L182.5295 185.6076
" />
<path d="M184.1723 184.8933
L185.0295 184.8933
" />
<path d="M184.6009 186.3933
L184.6009 184.8933
" />
<path d="M185.5295 186.3933
L185.5295 184.8933
" />
<path d="M185.5295 184.8933
L185.8866 184.8933
" />
<path d="M185.8866 184.8933
L186.1009 184.9648
" />
<path d="M186.1009 184.9648
L186.2437 185.1076
" />
<path d="M186.2437 185.1076
L186.3152 185.2505
" />
<path d="M186.3152 185.2505
L186.3866 185.5362
" />
<path d="M186.3866 185.5362
L186.3866 185.7505
" />
<path d="M186.3866 185.7505
L186.3152 186.0362
" />
<path d="M186.3152 186.0362
L186.2437 186.1790
" />
<path d="M186.2437 186.1790
L186.1009 186.3219
" />
<path d="M186.1009 186.3219
L185.8866 186.3933
" />
<path d="M185.8866 186.3933
L185.5295 186.3933
" />
<path d="M186.9580 186.3219
L187.1723 186.3933
" />
<path d="M187.1723 186.3933
L187.5295 186.3933
" />
<path d="M187.5295 186.3933
L187.6723 186.3219
" />
<path d="M187.6723 186.3219
L187.7437 186.2505
" />
<path d="M187.7437 186.2505
L187.8152 186.1076
" />
<path d="M187.8152 186.1076
L187.8152 185.9648
" />
<path d="M187.8152 185.9648
L187.7437 185.8219
" />
<path d="M187.7437 185.8219
L187.6723 185.7505
" />
<path d="M187.6723 185.7505
L187.5295 185.6790
" />
<path d="M187.5295 185.6790
L187.2437 185.6076
" />
<path d="M187.2437 185.6076
L187.1009 185.5362
" />
<path d="M187.1009 185.5362
L187.0295 185.4648
" />
<path d="M187.0295 185.4648
L186.9580 185.3219
" />
<path d="M186.9580 185.3219
L186.9580 185.1790
" />
<path d="M186.9580 185.1790
L187.0295 185.0362
" />
<path d="M187.0295 185.0362
L187.1009 184.9648
" />
<path d="M187.1009 184.9648
L187.2437 184.8933
" />
<path d="M187.2437 184.8933
L187.6009 184.8933
" />
<path d="M187.6009 184.8933
L187.8152 184.9648
" />
<path d="M188.4580 185.8219
L189.6009 185.8219
" />
<path d="M190.2437 185.0362
L190.3152 184.9648
" />
<path d="M190.3152 184.9648
L190.4580 184.8933
" />
<path d="M190.4580 184.8933
L190.8152 184.8933
" />
<path d="M190.8152 184.8933
L190.9580 184.9648
" />
<path d="M190.9580 184.9648
L191.0295 185.0362
" />
<path d="M191.0295 185.0362
L191.1009 185.1790
" />
<path d="M191.1009 185.1790
L191.1009 185.3219
" />
<path d="M191.1009 185.3219
L191.0295 185.5362
" />
<path d="M191.0295 185.5362
L190.1723 186.3933
" />
<path d="M190.1723 186.3933
L191.1009 186.3933
" />
<path d="M191.7437 186.2505
L191.8152 186.3219
" />
<path d="M191.8152 186.3219
L191.7437 186.3933
" />
<path d="M191.7437 186.3933
L191.6723 186.3219
" />
<path d="M191.6723 186.3219
L191.7437 186.2505
" />
<path d="M191.7437 186.2505
L191.7437 186.3933
" />
<path d="M192.4580 186.3933
L192.4580 184.8933
" />
<path d="M192.6009 185.8219
L193.0295 186.3933
" />
<path d="M193.0295 185.3933
L192.4580 185.9648
" />
<path d="M193.6723 186.3933
L193.6723 185.3933
" />
<path d="M193.6723 184.8933
L193.6009 184.9648
" />
<path d="M193.6009 184.9648
L193.6723 185.0362
" />
<path d="M193.6723 185.0362
L193.7437 184.9648
" />
<path d="M193.7437 184.9648
L193.6723 184.8933
" />
<path d="M193.6723 184.8933
L193.6723 185.0362
" />
<path d="M195.0295 186.3219
L194.8866 186.3933
" />
<path d="M194.8866 186.3933
L194.6009 186.3933
" />
<path d="M194.6009 186.3933
L194.4580 186.3219
" />
<path d="M194.4580 186.3219
L194.3866 186.2505
" />
<path d="M194.3866 186.2505
L194.3152 186.1076
" />
<path d="M194.3152 186.1076
L194.3152 185.6790
" />
<path d="M194.3152 185.6790
L194.3866 185.5362
" />
<path d="M194.3866 185.5362
L194.4580 185.4648
" />
<path d="M194.4580 185.4648
L194.6009 185.3933
" />
<path d="M194.6009 185.3933
L194.8866 185.3933
" />
<path d="M194.8866 185.3933
L195.0295 185.4648
" />
<path d="M196.3152 186.3933
L196.3152 185.6076
" />
<path d="M196.3152 185.6076
L196.2437 185.4648
" />
<path d="M196.2437 185.4648
L196.1009 185.3933
" />
<path d="M196.1009 185.3933
L195.8152 185.3933
" />
<path d="M195.8152 185.3933
L195.6723 185.4648
" />
<path d="M196.3152 186.3219
L196.1723 186.3933
" />
<path d="M196.1723 186.3933
L195.8152 186.3933
" />
<path d="M195.8152 186.3933
L195.6723 186.3219
" />
<path d="M195.6723 186.3219
L195.6009 186.1790
" />
<path d="M195.6009 186.1790
L195.6009 186.0362
" />
<path d="M195.6009 186.0362
L195.6723 185.8933
" />
<path d="M195.6723 185.8933
L195.8152 185.8219
" />
<path d="M195.8152 185.8219
L196.1723 185.8219
" />
<path d="M196.1723 185.8219
L196.3152 185.7505
" />
<path d="M197.6723 186.3933
L197.6723 184.8933
" />
<path d="M197.6723 186.3219
L197.5295 186.3933
" />
<path d="M197.5295 186.3933
L197.2437 186.3933
" />
<path d="M197.2437 186.3933
L197.1009 186.3219
" />
<path d="M197.1009 186.3219
L197.0295 186.2505
" />
<path d="M197.0295 186.2505
L196.9580 186.1076
" />
<path d="M196.9580 186.1076
L196.9580 185.6790
" />
<path d="M196.9580 185.6790
L197.0295 185.5362
" />
<path d="M197.0295 185.5362
L197.1009 185.4648
" />
<path d="M197.1009 185.4648
L197.2437 185.3933
" />
<path d="M197.2437 185.3933
L197.5295 185.3933
" />
<path d="M197.5295 185.3933
L197.6723 185.4648
" />
<path d="M198.0295 186.5362
L199.1723 186.5362
" />
<path d="M199.5295 185.3933
L199.5295 186.8933
" />
<path d="M199.5295 185.4648
L199.6723 185.3933
" />
<path d="M199.6723 185.3933
L199.9580 185.3933
" />
<path d="M199.9580 185.3933
L200.1009 185.4648
" />
<path d="M200.1009 185.4648
L200.1723 185.5362
" />
<path d="M200.1723 185.5362
L200.2437 185.6790
" />
<path d="M200.2437 185.6790
L200.2437 186.1076
" />
<path d="M200.2437 186.1076
L200.1723 186.2505
" />
<path d="M200.1723 186.2505
L200.1009 186.3219
" />
<path d="M200.1009 186.3219
L199.9580 186.3933
" />
<path d="M199.9580 186.3933
L199.6723 186.3933
" />
<path d="M199.6723 186.3933
L199.5295 186.3219
" />
<path d="M201.5295 186.3219
L201.3866 186.3933
" />
<path d="M201.3866 186.3933
L201.1009 186.3933
" />
<path d="M201.1009 186.3933
L200.9580 186.3219
" />
<path d="M200.9580 186.3219
L200.8866 186.2505
" />
<path d="M200.8866 186.2505
L200.8152 186.1076
" />
<path d="M200.8152 186.1076
L200.8152 185.6790
" />
<path d="M200.8152 185.6790
L200.8866 185.5362
" />
<path d="M200.8866 185.5362
L200.9580 185.4648
" />
<path d="M200.9580 185.4648
L201.1009 185.3933
" />
<path d="M201.1009 185.3933
L201.3866 185.3933
" />
<path d="M201.3866 185.3933
L201.5295 185.4648
" />
<path d="M202.1723 186.3933
L202.1723 184.8933
" />
<path d="M202.1723 185.4648
L202.3152 185.3933
" />
<path d="M202.3152 185.3933
L202.6009 185.3933
" />
<path d="M202.6009 185.3933
L202.7437 185.4648
" />
<path d="M202.7437 185.4648
L202.8152 185.5362
" />
<path d="M202.8152 185.5362
L202.8866 185.6790
" />
<path d="M202.8866 185.6790
L202.8866 186.1076
" />
<path d="M202.8866 186.1076
L202.8152 186.2505
" />
<path d="M202.8152 186.2505
L202.7437 186.3219
" />
<path d="M202.7437 186.3219
L202.6009 186.3933
" />
<path d="M202.6009 186.3933
L202.3152 186.3933
" />
<path d="M202.3152 186.3933
L202.1723 186.3219
" />
</g></g>
<g style="fill:none; 
stroke:#000000; stroke-width:0.1500; stroke-opacity:1; 
stroke-linecap:round; stroke-linejoin:round;">
<path d="M177.0022 181.5072
L285.0022 181.5072
" />
</g>
<g style="fill:none; 
stroke:#000000; stroke-width:0.1500; stroke-opacity:1; 
stroke-linecap:round; stroke-linejoin:round;">
<text x="178.0022" y="183.7572"
textLength="8.2214" font-size="2.0000" lengthAdjust="spacingAndGlyphs"
text-anchor="start" opacity="0">Sheet: </text>
<g class="stroked-text"><desc>Sheet: </desc>
<path d="M178.3866 183.6219
L178.6009 183.6933
" />
<path d="M178.6009 183.6933
L178.9580 183.6933
" />
<path d="M178.9580 183.6933
L179.1009 183.6219
" />
<path d="M179.1009 183.6219
L179.1723 183.5505
" />
<path d="M179.1723 183.5505
L179.2437 183.4076
" />
<path d="M179.2437 183.4076
L179.2437 183.2648
" />
<path d="M179.2437 183.2648
L179.1723 183.1219
" />
<path d="M179.1723 183.1219
L179.1009 183.0505
" />
<path d="M179.1009 183.0505
L178.9580 182.9790
" />
<path d="M178.9580 182.9790
L178.6723 182.9076
" />
<path d="M178.6723 182.9076
L178.5295 182.8362
" />
<path d="M178.5295 182.8362
L178.4580 182.7648
" />
<path d="M178.4580 182.7648
L178.3866 182.6219
" />
<path d="M178.3866 182.6219
L178.3866 182.4790
" />
<path d="M178.3866 182.4790
L178.4580 182.3362
" />
<path d="M178.4580 182.3362
L178.5295 182.2648
" />
<path d="M178.5295 182.2648
L178.6723 182.1933
" />
<path d="M178.6723 182.1933
L179.0295 182.1933
" />
<path d="M179.0295 182.1933
L179.2437 182.2648
" />
<path d="M179.8866 183.6933
L179.8866 182.1933
" />
<path d="M180.5295 183.6933
L180.5295 182.9076
" />
<path d="M180.5295 182.9076
L180.4580 182.7648
" />
<path d="M180.4580 182.7648
L180.3152 182.6933
" />
<path d="M180.3152 182.6933
L180.1009 182.6933
" />
<path d="M180.1009 182.6933
L179.9580 182.7648
" />
<path d="M179.9580 182.7648
L179.8866 182.8362
" />
<path d="M181.8152 183.6219
L181.6723 183.6933
" />
<path d="M181.6723 183.6933
L181.3866 183.6933
" />
<path d="M181.3866 183.6933
L181.2437 183.6219
" />
<path d="M181.2437 183.6219
L181.1723 183.4790
" />
<path d="M181.1723 183.4790
L181.1723 182.9076
" />
<path d="M181.1723 182.9076
L181.2437 182.7648
" />
<path d="M181.2437 182.7648
L181.3866 182.6933
" />
<path d="M181.3866 182.6933
L181.6723 182.6933
" />
<path d="M181.6723 182.6933
L181.8152 182.7648
" />
<path d="M181.8152 182.7648
L181.8866 182.9076
" />
<path d="M181.8866 182.9076
L181.8866 183.0505
" />
<path d="M181.8866 183.0505
L181.1723 183.1933
" />
<path d="M183.1009 183.6219
L182.9580 183.6933
" />
<path d="M182.9580 183.6933
L182.6723 183.6933
" />
<path d="M182.6723 183.6933
L182.5295 183.6219
" />
<path d="M182.5295 183.6219
L182.4580 183.4790
" />
<path d="M182.4580 183.4790
L182.4580 182.9076
" />
<path d="M182.4580 182.9076
L182.5295 182.7648
" />
<path d="M182.5295 182.7648
L182.6723 182.6933
" />
<path d="M182.6723 182.6933
L182.9580 182.6933
" />
<path d="M182.9580 182.6933
L183.1009 182.7648
" />
<path d="M183.1009 182.7648
L183.1723 182.9076
" />
<path d="M183.1723 182.9076
L183.1723 183.0505
" />
<path d="M183.1723 183.0505
L182.4580 183.1933
" />
<path d="M183.6009 182.6933
L184.1723 182.6933
" />
<path d="M183.8152 182.1933
L183.8152 183.4790
" />
<path d="M183.8152 183.4790
L183.8866 183.6219
" />
<path d="M183.8866 183.6219
L184.0295 183.6933
" />
<path d="M184.0295 183.6933
L184.1723 183.6933
" />
<path d="M184.6723 183.5505
L184.7437 183.6219
" />
<path d="M184.7437 183.6219
L184.6723 183.6933
" />
<path d="M184.6723 183.6933
L184.6009 183.6219
" />
<path d="M184.6009 183.6219
L184.6723 183.5505
" />
<path d="M184.6723 183.5505
L184.6723 183.6933
" />
<path d="M184.6723 182.7648
L184.7437 182.8362
" />
<path d="M184.7437 182.8362
L184.6723 182.9076
" />
<path d="M184.6723 182.9076
L184.6009 182.8362
" />
<path d="M184.6009 182.8362
L184.6723 182.7648
" />
<path d="M184.6723 182.7648
L184.6723 182.9076
" />
</g></g>
<g style="fill:none; 
stroke:#000000; stroke-width:0.3000; stroke-opacity:1; 
stroke-linecap:round; stroke-linejoin:round;">
<text x="178.0022" y="180.7572"
textLength="0.9000" font-size="2.0000" lengthAdjust="spacingAndGlyphs"
text-anchor="start" opacity="0"></text>
<g class="stroked-text"><desc></desc>
</g></g>
<g style="fill:none; 
stroke:#000000; stroke-width:0.1500; stroke-opacity:1; 
stroke-linecap:round; stroke-linejoin:round;">
<text x="178.0022" y="177.7572"
textLength="0.4500" font-size="2.0000" lengthAdjust="spacingAndGlyphs"
text-anchor="start" opacity="0"></text>
<g class="stroked-text"><desc></desc>
</g></g>
<g style="fill:none; 
stroke:#000000; stroke-width:0.1500; stroke-opacity:1; 
stroke-linecap:round; stroke-linejoin:round;">
<text x="178.0022" y="174.7572"
textLength="0.4500" font-size="2.0000" lengthAdjust="spacingAndGlyphs"
text-anchor="start" opacity="0"></text>
<g class="stroked-text"><desc></desc>
</g></g>
<g style="fill:none; 
stroke:#000000; stroke-width:0.1500; stroke-opacity:1; 
stroke-linecap:round; stroke-linejoin:round;">
<text x="178.0022" y="171.7572"
textLength="0.4500" font-size="2.0000" lengthAdjust="spacingAndGlyphs"
text-anchor="start" opacity="0"></text>
<g class="stroked-text"><desc></desc>
</g></g>
<g style="fill:none; 
stroke:#000000; stroke-width:0.1500; stroke-opacity:1; 
stroke-linecap:round; stroke-linejoin:round;">
<text x="178.0022" y="168.7572"
textLength="0.4500" font-size="2.0000" lengthAdjust="spacingAndGlyphs"
text-anchor="start" opacity="0"></text>
<g class="stroked-text"><desc></desc>
</g></g>
<g style="fill:none; 
stroke:#000000; stroke-width:0.1500; stroke-opacity:1; 
stroke-linecap:round; stroke-linejoin:round;">
<path d="M197.0022 191.5072
L197.0022 194.5072
" />
</g>
<g style="fill:none; 
stroke:#000000; stroke-width:0.1500; stroke-opacity:1; 
stroke-linecap:round; stroke-linejoin:round;">
<path d="M261.0022 191.5072
L261.0022 198.0072
" />
</g>
<g style="fill:none; 
stroke:#F2EDA1; stroke-width:0.1500; stroke-opacity:1; 
stroke-linecap:round; stroke-linejoin:round;">
<g transform="rotate(-270.000000 147.5500 53.8500)">
<text x="147.5500" y="54.3500"
textLength="1.9643" font-size="1.3333" lengthAdjust="spacingAndGlyphs"
text-anchor="middle" opacity="0">J1</text>
</g>
<g class="stroked-text"><desc>J1</desc>
<path d="M148.0952 53.5167
L147.3809 53.5167
" />
<path d="M147.3809 53.5167
L147.2380 53.4690
" />
<path d="M147.2380 53.4690
L147.1428 53.3738
" />
<path d="M147.1428 53.3738
L147.0952 53.2310
" />
<path d="M147.0952 53.2310
L147.0952 53.1357
" />
<path d="M147.0952 54.5167
L147.0952 53.9452
" />
<path d="M147.0952 54.2310
L148.0952 54.2310
" />
<path d="M148.0952 54.2310
L147.9523 54.1357
" />
<path d="M147.9523 54.1357
L147.8571 54.0405
" />
<path d="M147.8571 54.0405
L147.8095 53.9452
" />
</g><g transform="rotate(-90.000000 153.2600 63.1400)">
<text x="153.2600" y="63.6400"
textLength="3.0595" font-size="1.3333" lengthAdjust="spacingAndGlyphs"
text-anchor="middle" opacity="0">RV2</text>
</g>
<g class="stroked-text"><desc>RV2</desc>
<path d="M153.7148 63.7352
L153.2386 64.0686
" />
<path d="M153.7148 64.3067
L152.7148 64.3067
" />
<path d="M152.7148 64.3067
L152.7148 63.9257
" />
<path d="M152.7148 63.9257
L152.7624 63.8305
" />
<path d="M152.7624 63.8305
L152.8101 63.7829
" />
<path d="M152.8101 63.7829
L152.9053 63.7352
" />
<path d="M152.9053 63.7352
L153.0482 63.7352
" />
<path d="M153.0482 63.7352
L153.1434 63.7829
" />
<path d="M153.1434 63.7829
L153.1910 63.8305
" />
<path d="M153.1910 63.8305
L153.2386 63.9257
" />
<path d="M153.2386 63.9257
L153.2386 64.3067
" />
<path d="M152.7148 63.4495
L153.7148 63.1162
" />
<path d="M153.7148 63.1162
L152.7148 62.7829
" />
<path d="M152.8101 62.4971
L152.7624 62.4495
" />
<path d="M152.7624 62.4495
L152.7148 62.3543
" />
<path d="M152.7148 62.3543
L152.7148 62.1162
" />
<path d="M152.7148 62.1162
L152.7624 62.0210
" />
<path d="M152.7624 62.0210
L152.8101 61.9733
" />
<path d="M152.8101 61.9733
L152.9053 61.9257
" />
<path d="M152.9053 61.9257
L153.0005 61.9257
" />
<path d="M153.0005 61.9257
L153.1434 61.9733
" />
<path d="M153.1434 61.9733
L153.7148 62.5448
" />
<path d="M153.7148 62.5448
L153.7148 61.9257
" />
</g><text x="149.1000" y="126.7800"
textLength="1.9643" font-size="1.3333" lengthAdjust="spacingAndGlyphs"
text-anchor="middle" opacity="0">J4</text>
<g class="stroked-text"><desc>J4</desc>
<path d="M148.7667 125.7348
L148.7667 126.4491
" />
<path d="M148.7667 126.4491
L148.7190 126.5920
" />
<path d="M148.7190 126.5920
L148.6238 126.6872
" />
<path d="M148.6238 126.6872
L148.4810 126.7348
" />
<path d="M148.4810 126.7348
L148.3857 126.7348
" />
<path d="M149.6714 126.0682
L149.6714 126.7348
" />
<path d="M149.4333 125.6872
L149.1952 126.4015
" />
<path d="M149.1952 126.4015
L149.8143 126.4015
" />
</g><text x="128.0000" y="125.6800"
textLength="2.2024" font-size="1.3333" lengthAdjust="spacingAndGlyphs"
text-anchor="middle" opacity="0">R7</text>
<g class="stroked-text"><desc>R7</desc>
<path d="M127.8333 125.6348
L127.5000 125.1586
" />
<path d="M127.2619 125.6348
L127.2619 124.6348
" />
<path d="M127.2619 124.6348
L127.6429 124.6348
" />
<path d="M127.6429 124.6348
L127.7381 124.6824
" />
<path d="M127.7381 124.6824
L127.7857 124.7301
" />
<path d="M127.7857 124.7301
L127.8333 124.8253
" />
<path d="M127.8333 124.8253
L127.8333 124.9682
" />
<path d="M127.8333 124.9682
L127.7857 125.0634
" />
<path d="M127.7857 125.0634
L127.7381 125.1110
" />
<path d="M127.7381 125.1110
L127.6429 125.1586
" />
<path d="M127.6429 125.1586
L127.2619 125.1586
" />
<path d="M128.1667 124.6348
L128.8333 124.6348
" />
<path d="M128.8333 124.6348
L128.4048 125.6348
" />
</g><text x="159.5600" y="113.9000"
textLength="2.2024" font-size="1.3333" lengthAdjust="spacingAndGlyphs"
text-anchor="middle" opacity="0">C5</text>
<g class="stroked-text"><desc>C5</desc>
<path d="M159.3933 113.7596
L159.3457 113.8072
" />
<path d="M159.3457 113.8072
L159.2029 113.8548
" />
<path d="M159.2029 113.8548
L159.1076 113.8548
" />
<path d="M159.1076 113.8548
L158.9648 113.8072
" />
<path d="M158.9648 113.8072
L158.8695 113.7120
" />
<path d="M158.8695 113.7120
L158.8219 113.6167
" />
<path d="M158.8219 113.6167
L158.7743 113.4262
" />
<path d="M158.7743 113.4262
L158.7743 113.2834
" />
<path d="M158.7743 113.2834
L158.8219 113.0929
" />
<path d="M158.8219 113.0929
L158.8695 112.9977
" />
<path d="M158.8695 112.9977
L158.9648 112.9024
" />
<path d="M158.9648 112.9024
L159.1076 112.8548
" />
<path d="M159.1076 112.8548
L159.2029 112.8548
" />
<path d="M159.2029 112.8548
L159.3457 112.9024
" />
<path d="M159.3457 112.9024
L159.3933 112.9501
" />
<path d="M160.2981 112.8548
L159.8219 112.8548
" />
<path d="M159.8219 112.8548
L159.7743 113.3310
" />
<path d="M159.7743 113.3310
L159.8219 113.2834
" />
<path d="M159.8219 113.2834
L159.9171 113.2358
" />
<path d="M159.9171 113.2358
L160.1552 113.2358
" />
<path d="M160.1552 113.2358
L160.2505 113.2834
" />
<path d="M160.2505 113.2834
L160.2981 113.3310
" />
<path d="M160.2981 113.3310
L160.3457 113.4262
" />
<path d="M160.3457 113.4262
L160.3457 113.6643
" />
<path d="M160.3457 113.6643
L160.2981 113.7596
" />
<path d="M160.2981 113.7596
L160.2505 113.8072
" />
<path d="M160.2505 113.8072
L160.1552 113.8548
" />
<path d="M160.1552 113.8548
L159.9171 113.8548
" />
<path d="M159.9171 113.8548
L159.8219 113.8072
" />
<path d="M159.8219 113.8072
L159.7743 113.7596
" />
</g><text x="128.0000" y="105.4300"
textLength="2.2024" font-size="1.3333" lengthAdjust="spacingAndGlyphs"
text-anchor="middle" opacity="0">R2</text>
<g class="stroked-text"><desc>R2</desc>
<path d="M127.8333 105.3848
L127.5000 104.9086
" />
<path d="M127.2619 105.3848
L127.2619 104.3848
" />
<path d="M127.2619 104.3848
L127.6429 104.3848
" />
<path d="M127.6429 104.3848
L127.7381 104.4324
" />
<path d="M127.7381 104.4324
L127.7857 104.4801
" />
<path d="M127.7857 104.4801
L127.8333 104.5753
" />
<path d="M127.8333 104.5753
L127.8333 104.7182
" />
<path d="M127.8333 104.7182
L127.7857 104.8134
" />
<path d="M127.7857 104.8134
L127.7381 104.8610
" />
<path d="M127.7381 104.8610
L127.6429 104.9086
" />
<path d="M127.6429 104.9086
L127.2619 104.9086
" />
<path d="M128.2143 104.4801
L128.2619 104.4324
" />
<path d="M128.2619 104.4324
L128.3571 104.3848
" />
<path d="M128.3571 104.3848
L128.5952 104.3848
" />
<path d="M128.5952 104.3848
L128.6905 104.4324
" />
<path d="M128.6905 104.4324
L128.7381 104.4801
" />
<path d="M128.7381 104.4801
L128.7857 104.5753
" />
<path d="M128.7857 104.5753
L128.7857 104.6705
" />
<path d="M128.7857 104.6705
L128.7381 104.8134
" />
<path d="M128.7381 104.8134
L128.1667 105.3848
" />
<path d="M128.1667 105.3848
L128.7857 105.3848
" />
</g><text x="140.8000" y="126.7800"
textLength="1.9643" font-size="1.3333" lengthAdjust="spacingAndGlyphs"
text-anchor="middle" opacity="0">J2</text>
<g class="stroked-text"><desc>J2</desc>
<path d="M140.4667 125.7348
L140.4667 126.4491
" />
<path d="M140.4667 126.4491
L140.4190 126.5920
" />
<path d="M140.4190 126.5920
L140.3238 126.6872
" />
<path d="M140.3238 126.6872
L140.1810 126.7348
" />
<path d="M140.1810 126.7348
L140.0857 126.7348
" />
<path d="M140.8952 125.8301
L140.9429 125.7824
" />
<path d="M140.9429 125.7824
L141.0381 125.7348
" />
<path d="M141.0381 125.7348
L141.2762 125.7348
" />
<path d="M141.2762 125.7348
L141.3714 125.7824
" />
<path d="M141.3714 125.7824
L141.4190 125.8301
" />
<path d="M141.4190 125.8301
L141.4667 125.9253
" />
<path d="M141.4667 125.9253
L141.4667 126.0205
" />
<path d="M141.4667 126.0205
L141.4190 126.1634
" />
<path d="M141.4190 126.1634
L140.8476 126.7348
" />
<path d="M140.8476 126.7348
L141.4667 126.7348
" />
</g><g transform="rotate(-90.000000 122.3600 63.1900)">
<text x="122.3600" y="63.6900"
textLength="3.0595" font-size="1.3333" lengthAdjust="spacingAndGlyphs"
text-anchor="middle" opacity="0">RV1</text>
</g>
<g class="stroked-text"><desc>RV1</desc>
<path d="M122.8148 63.7852
L122.3386 64.1186
" />
<path d="M122.8148 64.3567
L121.8148 64.3567
" />
<path d="M121.8148 64.3567
L121.8148 63.9757
" />
<path d="M121.8148 63.9757
L121.8624 63.8805
" />
<path d="M121.8624 63.8805
L121.9101 63.8329
" />
<path d="M121.9101 63.8329
L122.0053 63.7852
" />
<path d="M122.0053 63.7852
L122.1482 63.7852
" />
<path d="M122.1482 63.7852
L122.2434 63.8329
" />
<path d="M122.2434 63.8329
L122.2910 63.8805
" />
<path d="M122.2910 63.8805
L122.3386 63.9757
" />
<path d="M122.3386 63.9757
L122.3386 64.3567
" />
<path d="M121.8148 63.4995
L122.8148 63.1662
" />
<path d="M122.8148 63.1662
L121.8148 62.8329
" />
<path d="M122.8148 61.9757
L122.8148 62.5471
" />
<path d="M122.8148 62.2614
L121.8148 62.2614
" />
<path d="M121.8148 62.2614
L121.9577 62.3567
" />
<path d="M121.9577 62.3567
L122.0529 62.4519
" />
<path d="M122.0529 62.4519
L122.1005 62.5471
" />
</g><text x="145.4400" y="99.3900"
textLength="2.2500" font-size="1.3333" lengthAdjust="spacingAndGlyphs"
text-anchor="middle" opacity="0">U1</text>
<g class="stroked-text"><desc>U1</desc>
<path d="M144.6781 98.3448
L144.6781 99.1543
" />
<path d="M144.6781 99.1543
L144.7257 99.2496
" />
<path d="M144.7257 99.2496
L144.7733 99.2972
" />
<path d="M144.7733 99.2972
L144.8686 99.3448
" />
<path d="M144.8686 99.3448
L145.0590 99.3448
" />
<path d="M145.0590 99.3448
L145.1543 99.2972
" />
<path d="M145.1543 99.2972
L145.2019 99.2496
" />
<path d="M145.2019 99.2496
L145.2495 99.1543
" />
<path d="M145.2495 99.1543
L145.2495 98.3448
" />
<path d="M146.2495 99.3448
L145.6781 99.3448
" />
<path d="M145.9638 99.3448
L145.9638 98.3448
" />
<path d="M145.9638 98.3448
L145.8686 98.4877
" />
<path d="M145.8686 98.4877
L145.7733 98.5829
" />
<path d="M145.7733 98.5829
L145.6781 98.6305
" />
</g><text x="128.0000" y="101.3800"
textLength="2.2024" font-size="1.3333" lengthAdjust="spacingAndGlyphs"
text-anchor="middle" opacity="0">R1</text>
<g class="stroked-text"><desc>R1</desc>
<path d="M127.8333 101.3348
L127.5000 100.8586
" />
<path d="M127.2619 101.3348
L127.2619 100.3348
" />
<path d="M127.2619 100.3348
L127.6429 100.3348
" />
<path d="M127.6429 100.3348
L127.7381 100.3824
" />
<path d="M127.7381 100.3824
L127.7857 100.4301
" />
<path d="M127.7857 100.4301
L127.8333 100.5253
" />
<path d="M127.8333 100.5253
L127.8333 100.6682
" />
<path d="M127.8333 100.6682
L127.7857 100.7634
" />
<path d="M127.7857 100.7634
L127.7381 100.8110
" />
<path d="M127.7381 100.8110
L127.6429 100.8586
" />
<path d="M127.6429 100.8586
L127.2619 100.8586
" />
<path d="M128.7857 101.3348
L128.2143 101.3348
" />
<path d="M128.5000 101.3348
L128.5000 100.3348
" />
<path d="M128.5000 100.3348
L128.4048 100.4777
" />
<path d="M128.4048 100.4777
L128.3095 100.5729
" />
<path d="M128.3095 100.5729
L128.2143 100.6205
" />
</g><text x="128.0000" y="121.6300"
textLength="2.2024" font-size="1.3333" lengthAdjust="spacingAndGlyphs"
text-anchor="middle" opacity="0">R6</text>
<g class="stroked-text"><desc>R6</desc>
<path d="M127.8333 121.5848
L127.5000 121.1086
" />
<path d="M127.2619 121.5848
L127.2619 120.5848
" />
<path d="M127.2619 120.5848
L127.6429 120.5848
" />
<path d="M127.6429 120.5848
L127.7381 120.6324
" />
<path d="M127.7381 120.6324
L127.7857 120.6801
" />
<path d="M127.7857 120.6801
L127.8333 120.7753
" />
<path d="M127.8333 120.7753
L127.8333 120.9182
" />
<path d="M127.8333 120.9182
L127.7857 121.0134
" />
<path d="M127.7857 121.0134
L127.7381 121.0610
" />
<path d="M127.7381 121.0610
L127.6429 121.1086
" />
<path d="M127.6429 121.1086
L127.2619 121.1086
" />
<path d="M128.6905 120.5848
L128.5000 120.5848
" />
<path d="M128.5000 120.5848
L128.4048 120.6324
" />
<path d="M128.4048 120.6324
L128.3571 120.6801
" />
<path d="M128.3571 120.6801
L128.2619 120.8229
" />
<path d="M128.2619 120.8229
L128.2143 121.0134
" />
<path d="M128.2143 121.0134
L128.2143 121.3943
" />
<path d="M128.2143 121.3943
L128.2619 121.4896
" />
<path d="M128.2619 121.4896
L128.3095 121.5372
" />
<path d="M128.3095 121.5372
L128.4048 121.5848
" />
<path d="M128.4048 121.5848
L128.5952 121.5848
" />
<path d="M128.5952 121.5848
L128.6905 121.5372
" />
<path d="M128.6905 121.5372
L128.7381 121.4896
" />
<path d="M128.7381 121.4896
L128.7857 121.3943
" />
<path d="M128.7857 121.3943
L128.7857 121.1562
" />
<path d="M128.7857 121.1562
L128.7381 121.0610
" />
<path d="M128.7381 121.0610
L128.6905 121.0134
" />
<path d="M128.6905 121.0134
L128.5952 120.9658
" />
<path d="M128.5952 120.9658
L128.4048 120.9658
" />
<path d="M128.4048 120.9658
L128.3095 121.0134
" />
<path d="M128.3095 121.0134
L128.2619 121.0610
" />
<path d="M128.2619 121.0610
L128.2143 121.1562
" />
</g><text x="158.8498" y="117.3500"
textLength="2.2024" font-size="1.3333" lengthAdjust="spacingAndGlyphs"
text-anchor="middle" opacity="0">C1</text>
<g class="stroked-text"><desc>C1</desc>
<path d="M158.6831 117.2096
L158.6355 117.2572
" />
<path d="M158.6355 117.2572
L158.4926 117.3048
" />
<path d="M158.4926 117.3048
L158.3974 117.3048
" />
<path d="M158.3974 117.3048
L158.2545 117.2572
" />
<path d="M158.2545 117.2572
L158.1593 117.1620
" />
<path d="M158.1593 117.1620
L158.1117 117.0667
" />
<path d="M158.1117 117.0667
L158.0641 116.8762
" />
<path d="M158.0641 116.8762
L158.0641 116.7334
" />
<path d="M158.0641 116.7334
L158.1117 116.5429
" />
<path d="M158.1117 116.5429
L158.1593 116.4477
" />
<path d="M158.1593 116.4477
L158.2545 116.3524
" />
<path d="M158.2545 116.3524
L158.3974 116.3048
" />
<path d="M158.3974 116.3048
L158.4926 116.3048
" />
<path d="M158.4926 116.3048
L158.6355 116.3524
" />
<path d="M158.6355 116.3524
L158.6831 116.4001
" />
<path d="M159.6355 117.3048
L159.0641 117.3048
" />
<path d="M159.3498 117.3048
L159.3498 116.3048
" />
<path d="M159.3498 116.3048
L159.2545 116.4477
" />
<path d="M159.2545 116.4477
L159.1593 116.5429
" />
<path d="M159.1593 116.5429
L159.0641 116.5905
" />
</g><text x="159.5600" y="103.5500"
textLength="2.2024" font-size="1.3333" lengthAdjust="spacingAndGlyphs"
text-anchor="middle" opacity="0">C2</text>
<g class="stroked-text"><desc>C2</desc>
<path d="M159.3933 103.4096
L159.3457 103.4572
" />
<path d="M159.3457 103.4572
L159.2029 103.5048
" />
<path d="M159.2029 103.5048
L159.1076 103.5048
" />
<path d="M159.1076 103.5048
L158.9648 103.4572
" />
<path d="M158.9648 103.4572
L158.8695 103.3620
" />
<path d="M158.8695 103.3620
L158.8219 103.2667
" />
<path d="M158.8219 103.2667
L158.7743 103.0762
" />
<path d="M158.7743 103.0762
L158.7743 102.9334
" />
<path d="M158.7743 102.9334
L158.8219 102.7429
" />
<path d="M158.8219 102.7429
L158.8695 102.6477
" />
<path d="M158.8695 102.6477
L158.9648 102.5524
" />
<path d="M158.9648 102.5524
L159.1076 102.5048
" />
<path d="M159.1076 102.5048
L159.2029 102.5048
" />
<path d="M159.2029 102.5048
L159.3457 102.5524
" />
<path d="M159.3457 102.5524
L159.3933 102.6001
" />
<path d="M159.7743 102.6001
L159.8219 102.5524
" />
<path d="M159.8219 102.5524
L159.9171 102.5048
" />
<path d="M159.9171 102.5048
L160.1552 102.5048
" />
<path d="M160.1552 102.5048
L160.2505 102.5524
" />
<path d="M160.2505 102.5524
L160.2981 102.6001
" />
<path d="M160.2981 102.6001
L160.3457 102.6953
" />
<path d="M160.3457 102.6953
L160.3457 102.7905
" />
<path d="M160.3457 102.7905
L160.2981 102.9334
" />
<path d="M160.2981 102.9334
L159.7267 103.5048
" />
<path d="M159.7267 103.5048
L160.3457 103.5048
" />
</g><text x="159.5600" y="110.4500"
textLength="2.2024" font-size="1.3333" lengthAdjust="spacingAndGlyphs"
text-anchor="middle" opacity="0">C4</text>
<g class="stroked-text"><desc>C4</desc>
<path d="M159.3933 110.3096
L159.3457 110.3572
" />
<path d="M159.3457 110.3572
L159.2029 110.4048
" />
<path d="M159.2029 110.4048
L159.1076 110.4048
" />
<path d="M159.1076 110.4048
L158.9648 110.3572
" />
<path d="M158.9648 110.3572
L158.8695 110.2620
" />
<path d="M158.8695 110.2620
L158.8219 110.1667
" />
<path d="M158.8219 110.1667
L158.7743 109.9762
" />
<path d="M158.7743 109.9762
L158.7743 109.8334
" />
<path d="M158.7743 109.8334
L158.8219 109.6429
" />
<path d="M158.8219 109.6429
L158.8695 109.5477
" />
<path d="M158.8695 109.5477
L158.9648 109.4524
" />
<path d="M158.9648 109.4524
L159.1076 109.4048
" />
<path d="M159.1076 109.4048
L159.2029 109.4048
" />
<path d="M159.2029 109.4048
L159.3457 109.4524
" />
<path d="M159.3457 109.4524
L159.3933 109.5001
" />
<path d="M160.2505 109.7382
L160.2505 110.4048
" />
<path d="M160.0124 109.3572
L159.7743 110.0715
" />
<path d="M159.7743 110.0715
L160.3933 110.0715
" />
</g><text x="128.0000" y="113.5300"
textLength="2.2024" font-size="1.3333" lengthAdjust="spacingAndGlyphs"
text-anchor="middle" opacity="0">R4</text>
<g class="stroked-text"><desc>R4</desc>
<path d="M127.8333 113.4848
L127.5000 113.0086
" />
<path d="M127.2619 113.4848
L127.2619 112.4848
" />
<path d="M127.2619 112.4848
L127.6429 112.4848
" />
<path d="M127.6429 112.4848
L127.7381 112.5324
" />
<path d="M127.7381 112.5324
L127.7857 112.5801
" />
<path d="M127.7857 112.5801
L127.8333 112.6753
" />
<path d="M127.8333 112.6753
L127.8333 112.8182
" />
<path d="M127.8333 112.8182
L127.7857 112.9134
" />
<path d="M127.7857 112.9134
L127.7381 112.9610
" />
<path d="M127.7381 112.9610
L127.6429 113.0086
" />
<path d="M127.6429 113.0086
L127.2619 113.0086
" />
<path d="M128.6905 112.8182
L128.6905 113.4848
" />
<path d="M128.4524 112.4372
L128.2143 113.1515
" />
<path d="M128.2143 113.1515
L128.8333 113.1515
" />
</g><text x="146.9950" y="114.5900"
textLength="2.2024" font-size="1.3333" lengthAdjust="spacingAndGlyphs"
text-anchor="middle" opacity="0">D1</text>
<g class="stroked-text"><desc>D1</desc>
<path d="M146.2569 114.5448
L146.2569 113.5448
" />
<path d="M146.2569 113.5448
L146.4950 113.5448
" />
<path d="M146.4950 113.5448
L146.6379 113.5924
" />
<path d="M146.6379 113.5924
L146.7331 113.6877
" />
<path d="M146.7331 113.6877
L146.7807 113.7829
" />
<path d="M146.7807 113.7829
L146.8283 113.9734
" />
<path d="M146.8283 113.9734
L146.8283 114.1162
" />
<path d="M146.8283 114.1162
L146.7807 114.3067
" />
<path d="M146.7807 114.3067
L146.7331 114.4020
" />
<path d="M146.7331 114.4020
L146.6379 114.4972
" />
<path d="M146.6379 114.4972
L146.4950 114.5448
" />
<path d="M146.4950 114.5448
L146.2569 114.5448
" />
<path d="M147.7807 114.5448
L147.2093 114.5448
" />
<path d="M147.4950 114.5448
L147.4950 113.5448
" />
<path d="M147.4950 113.5448
L147.3998 113.6877
" />
<path d="M147.3998 113.6877
L147.3045 113.7829
" />
<path d="M147.3045 113.7829
L147.2093 113.8305
" />
</g><text x="128.0000" y="109.4800"
textLength="2.2024" font-size="1.3333" lengthAdjust="spacingAndGlyphs"
text-anchor="middle" opacity="0">R3</text>
<g class="stroked-text"><desc>R3</desc>
<path d="M127.8333 109.4348
L127.5000 108.9586
" />
<path d="M127.2619 109.4348
L127.2619 108.4348
" />
<path d="M127.2619 108.4348
L127.6429 108.4348
" />
<path d="M127.6429 108.4348
L127.7381 108.4824
" />
<path d="M127.7381 108.4824
L127.7857 108.5301
" />
<path d="M127.7857 108.5301
L127.8333 108.6253
" />
<path d="M127.8333 108.6253
L127.8333 108.7682
" />
<path d="M127.8333 108.7682
L127.7857 108.8634
" />
<path d="M127.7857 108.8634
L127.7381 108.9110
" />
<path d="M127.7381 108.9110
L127.6429 108.9586
" />
<path d="M127.6429 108.9586
L127.2619 108.9586
" />
<path d="M128.1667 108.4348
L128.7857 108.4348
" />
<path d="M128.7857 108.4348
L128.4524 108.8158
" />
<path d="M128.4524 108.8158
L128.5952 108.8158
" />
<path d="M128.5952 108.8158
L128.6905 108.8634
" />
<path d="M128.6905 108.8634
L128.7381 108.9110
" />
<path d="M128.7381 108.9110
L128.7857 109.0062
" />
<path d="M128.7857 109.0062
L128.7857 109.2443
" />
<path d="M128.7857 109.2443
L128.7381 109.3396
" />
<path d="M128.7381 109.3396
L128.6905 109.3872
" />
<path d="M128.6905 109.3872
L128.5952 109.4348
" />
<path d="M128.5952 109.4348
L128.3095 109.4348
" />
<path d="M128.3095 109.4348
L128.2143 109.3872
" />
<path d="M128.2143 109.3872
L128.1667 109.3396
" />
</g><text x="144.9500" y="126.7800"
textLength="1.9643" font-size="1.3333" lengthAdjust="spacingAndGlyphs"
text-anchor="middle" opacity="0">J3</text>
<g class="stroked-text"><desc>J3</desc>
<path d="M144.6167 125.7348
L144.6167 126.4491
" />
<path d="M144.6167 126.4491
L144.5690 126.5920
" />
<path d="M144.5690 126.5920
L144.4738 126.6872
" />
<path d="M144.4738 126.6872
L144.3310 126.7348
" />
<path d="M144.3310 126.7348
L144.2357 126.7348
" />
<path d="M144.9976 125.7348
L145.6167 125.7348
" />
<path d="M145.6167 125.7348
L145.2833 126.1158
" />
<path d="M145.2833 126.1158
L145.4262 126.1158
" />
<path d="M145.4262 126.1158
L145.5214 126.1634
" />
<path d="M145.5214 126.1634
L145.5690 126.2110
" />
<path d="M145.5690 126.2110
L145.6167 126.3062
" />
<path d="M145.6167 126.3062
L145.6167 126.5443
" />
<path d="M145.6167 126.5443
L145.5690 126.6396
" />
<path d="M145.5690 126.6396
L145.5214 126.6872
" />
<path d="M145.5214 126.6872
L145.4262 126.7348
" />
<path d="M145.4262 126.7348
L145.1405 126.7348
" />
<path d="M145.1405 126.7348
L145.0452 126.6872
" />
<path d="M145.0452 126.6872
L144.9976 126.6396
" />
</g><text x="128.0000" y="117.5800"
textLength="2.2024" font-size="1.3333" lengthAdjust="spacingAndGlyphs"
text-anchor="middle" opacity="0">R5</text>
<g class="stroked-text"><desc>R5</desc>
<path d="M127.8333 117.5348
L127.5000 117.0586
" />
<path d="M127.2619 117.5348
L127.2619 116.5348
" />
<path d="M127.2619 116.5348
L127.6429 116.5348
" />
<path d="M127.6429 116.5348
L127.7381 116.5824
" />
<path d="M127.7381 116.5824
L127.7857 116.6301
" />
<path d="M127.7857 116.6301
L127.8333 116.7253
" />
<path d="M127.8333 116.7253
L127.8333 116.8682
" />
<path d="M127.8333 116.8682
L127.7857 116.9634
" />
<path d="M127.7857 116.9634
L127.7381 117.0110
" />
<path d="M127.7381 117.0110
L127.6429 117.0586
" />
<path d="M127.6429 117.0586
L127.2619 117.0586
" />
<path d="M128.7381 116.5348
L128.2619 116.5348
" />
<path d="M128.2619 116.5348
L128.2143 117.0110
" />
<path d="M128.2143 117.0110
L128.2619 116.9634
" />
<path d="M128.2619 116.9634
L128.3571 116.9158
" />
<path d="M128.3571 116.9158
L128.5952 116.9158
" />
<path d="M128.5952 116.9158
L128.6905 116.9634
" />
<path d="M128.6905 116.9634
L128.7381 117.0110
" />
<path d="M128.7381 117.0110
L128.7857 117.1062
" />
<path d="M128.7857 117.1062
L128.7857 117.3443
" />
<path d="M128.7857 117.3443
L128.7381 117.4396
" />
<path d="M128.7381 117.4396
L128.6905 117.4872
" />
<path d="M128.6905 117.4872
L128.5952 117.5348
" />
<path d="M128.5952 117.5348
L128.3571 117.5348
" />
<path d="M128.3571 117.5348
L128.2619 117.4872
" />
<path d="M128.2619 117.4872
L128.2143 117.4396
" />
</g><text x="159.5600" y="107.0000"
textLength="2.2024" font-size="1.3333" lengthAdjust="spacingAndGlyphs"
text-anchor="middle" opacity="0">C3</text>
<g class="stroked-text"><desc>C3</desc>
<path d="M159.3933 106.8596
L159.3457 106.9072
" />
<path d="M159.3457 106.9072
L159.2029 106.9548
" />
<path d="M159.2029 106.9548
L159.1076 106.9548
" />
<path d="M159.1076 106.9548
L158.9648 106.9072
" />
<path d="M158.9648 106.9072
L158.8695 106.8120
" />
<path d="M158.8695 106.8120
L158.8219 106.7167
" />
<path d="M158.8219 106.7167
L158.7743 106.5262
" />
<path d="M158.7743 106.5262
L158.7743 106.3834
" />
<path d="M158.7743 106.3834
L158.8219 106.1929
" />
<path d="M158.8219 106.1929
L158.8695 106.0977
" />
<path d="M158.8695 106.0977
L158.9648 106.0024
" />
<path d="M158.9648 106.0024
L159.1076 105.9548
" />
<path d="M159.1076 105.9548
L159.2029 105.9548
" />
<path d="M159.2029 105.9548
L159.3457 106.0024
" />
<path d="M159.3457 106.0024
L159.3933 106.0501
" />
<path d="M159.7267 105.9548
L160.3457 105.9548
" />
<path d="M160.3457 105.9548
L160.0124 106.3358
" />
<path d="M160.0124 106.3358
L160.1552 106.3358
" />
<path d="M160.1552 106.3358
L160.2505 106.3834
" />
<path d="M160.2505 106.3834
L160.2981 106.4310
" />
<path d="M160.2981 106.4310
L160.3457 106.5262
" />
<path d="M160.3457 106.5262
L160.3457 106.7643
" />
<path d="M160.3457 106.7643
L160.2981 106.8596
" />
<path d="M160.2981 106.8596
L160.2505 106.9072
" />
<path d="M160.2505 106.9072
L160.1552 106.9548
" />
<path d="M160.1552 106.9548
L159.8695 106.9548
" />
<path d="M159.8695 106.9548
L159.7743 106.9072
" />
<path d="M159.7743 106.9072
L159.7267 106.8596
" />
</g></g>
<g style="fill:none; 
stroke:#F2EDA1; stroke-width:0.1200; stroke-opacity:1; 
stroke-linecap:round; stroke-linejoin:round;">
<path d="M149.5700 62.6700
L149.5700 47.9300
" />
<path d="M149.5700 47.9300
L140.3300 47.9300
" />
<path d="M147.9000 62.6700
L149.5700 62.6700
" />
<path d="M140.3300 62.6700
L142.0000 62.6700
" />
<path d="M140.3300 61.4500
L140.3300 62.6700
" />
<path d="M140.3300 47.9300
L140.3300 56.0500
" />
<path d="M155.5200 68.9700
L155.5200 64.2500
" />
<path d="M156.7100 68.9700
L155.5300 68.9700
" />
<path d="M159.6100 68.9700
L159.0800 68.9700
" />
<path d="M162.0600 68.9700
L161.2300 68.9700
" />
<path d="M165.2700 68.9700
L163.7800 68.9700
" />
<path d="M165.2700 68.9700
L165.2700 64.2500
" />
<path d="M155.5300 60.4400
L155.5300 57.3800
" />
<path d="M165.2700 60.4400
L165.2700 57.3800
" />
<path d="M165.2700 57.3800
L155.5300 57.3800
" />
<path d="M147.7700 127.2800
L149.1000 127.2800
" />
<path d="M147.7700 128.6100
L147.7700 127.2800
" />
<path d="M147.7700 129.8800
L147.7700 135.0200
" />
<path d="M147.7700 129.8800
L150.4300 129.8800
" />
<path d="M147.7700 135.0200
L150.4300 135.0200
" />
<path d="M150.4300 129.8800
L150.4300 135.0200
" />
<path d="M123.9600 127.5500
L124.7300 127.5500
" />
<path d="M124.7300 126.1800
L124.7300 128.9200
" />
<path d="M124.7300 128.9200
L131.2700 128.9200
" />
<path d="M131.2700 126.1800
L124.7300 126.1800
" />
<path d="M131.2700 128.9200
L131.2700 126.1800
" />
<path d="M132.0400 127.5500
L131.2700 127.5500
" />
<path d="M157.2900 114.5300
L157.2900 114.5450
" />
<path d="M157.2900 114.5300
L161.8300 114.5300
" />
<path d="M157.2900 116.6550
L157.2900 116.6700
" />
<path d="M157.2900 116.6700
L161.8300 116.6700
" />
<path d="M161.8300 114.5300
L161.8300 114.5450
" />
<path d="M161.8300 116.6550
L161.8300 116.6700
" />
<path d="M123.9600 107.3000
L124.7300 107.3000
" />
<path d="M124.7300 105.9300
L124.7300 108.6700
" />
<path d="M124.7300 108.6700
L131.2700 108.6700
" />
<path d="M131.2700 105.9300
L124.7300 105.9300
" />
<path d="M131.2700 108.6700
L131.2700 105.9300
" />
<path d="M132.0400 107.3000
L131.2700 107.3000
" />
<path style="fill:none; 
stroke:#F2EDA1; stroke-width:0.1000; stroke-opacity:1; 
stroke-linecap:round; stroke-linejoin:round;fill:none"
d="M 119.0000,92.9000
115.0000,92.9000
115.0000,81.9000
119.0000,81.9000
Z" /> 
<path style="fill:none; 
stroke:#F2EDA1; stroke-width:0.1000; stroke-opacity:1; 
stroke-linecap:round; stroke-linejoin:round;fill:none"
d="M 140.0000,97.4000
119.0000,97.4000
119.0000,77.4000
140.0000,77.4000
Z" /> 
</g>
<g style="fill:none; 
stroke:#F2EDA1; stroke-width:0.1200; stroke-opacity:1; 
stroke-linecap:round; stroke-linejoin:round;">
<path d="M139.4700 127.2800
L140.8000 127.2800
" />
<path d="M139.4700 128.6100
L139.4700 127.2800
" />
<path d="M139.4700 129.8800
L139.4700 135.0200
" />
<path d="M139.4700 129.8800
L142.1300 129.8800
" />
<path d="M139.4700 135.0200
L142.1300 135.0200
" />
<path d="M142.1300 129.8800
L142.1300 135.0200
" />
<path d="M124.6200 69.0200
L124.6200 64.3000
" />
<path d="M125.8100 69.0200
L124.6300 69.0200
" />
<path d="M128.7100 69.0200
L128.1800 69.0200
" />
<path d="M131.1600 69.0200
L130.3300 69.0200
" />
<path d="M134.3700 69.0200
L132.8800 69.0200
" />
<path d="M134.3700 69.0200
L134.3700 64.3000
" />
<path d="M124.6300 60.4900
L124.6300 57.4300
" />
<path d="M134.3700 60.4900
L134.3700 57.4300
" />
<path d="M134.3700 57.4300
L124.6300 57.4300
" />
<path d="M142.7900 99.8900
L142.7900 110.1700
" />
<path d="M142.7900 110.1700
L148.0900 110.1700
" />
<path d="M144.4400 99.8900
L142.7900 99.8900
" />
<path d="M148.0900 99.8900
L146.4400 99.8900
" />
<path d="M148.0900 110.1700
L148.0900 99.8900
" />
<path d="M144.4400 99.8900 A1.0000 1.0000 0.0 0 0 146.4400 99.8900" />
<path d="M123.9600 103.2500
L124.7300 103.2500
" />
<path d="M124.7300 101.8800
L124.7300 104.6200
" />
<path d="M124.7300 104.6200
L131.2700 104.6200
" />
<path d="M131.2700 101.8800
L124.7300 101.8800
" />
<path d="M131.2700 104.6200
L131.2700 101.8800
" />
<path d="M132.0400 103.2500
L131.2700 103.2500
" />
<path d="M123.9600 123.5000
L124.7300 123.5000
" />
<path d="M124.7300 122.1300
L124.7300 124.8700
" />
<path d="M124.7300 124.8700
L131.2700 124.8700
" />
<path d="M131.2700 122.1300
L124.7300 122.1300
" />
<path d="M131.2700 124.8700
L131.2700 122.1300
" />
<path d="M132.0400 123.5000
L131.2700 123.5000
" />
<path d="M156.0450 119.1250
L156.5450 119.1250
" />
<path d="M156.2950 118.8750
L156.2950 119.3750
" />
<path d="M158.8498 118.0200
L158.8498 123.1800
" />
<path d="M158.8898 118.0200
L158.8898 123.1800
" />
<path d="M158.9298 118.0210
L158.9298 123.1790
" />
<path d="M158.9698 118.0220
L158.9698 123.1780
" />
<path d="M159.0098 118.0240
L159.0098 123.1760
" />
<path d="M159.0498 118.0270
L159.0498 123.1730
" />
<path d="M159.0898 118.0310
L159.0898 119.5600
" />
<path d="M159.0898 121.6400
L159.0898 123.1690
" />
<path d="M159.1298 118.0350
L159.1298 119.5600
" />
<path d="M159.1298 121.6400
L159.1298 123.1650
" />
<path d="M159.1698 118.0390
L159.1698 119.5600
" />
<path d="M159.1698 121.6400
L159.1698 123.1610
" />
<path d="M159.2098 118.0440
L159.2098 119.5600
" />
<path d="M159.2098 121.6400
L159.2098 123.1560
" />
<path d="M159.2498 118.0500
L159.2498 119.5600
" />
<path d="M159.2498 121.6400
L159.2498 123.1500
" />
<path d="M159.2898 118.0570
L159.2898 119.5600
" />
<path d="M159.2898 121.6400
L159.2898 123.1430
" />
<path d="M159.3298 118.0640
L159.3298 119.5600
" />
<path d="M159.3298 121.6400
L159.3298 123.1360
" />
<path d="M159.3698 118.0720
L159.3698 119.5600
" />
<path d="M159.3698 121.6400
L159.3698 123.1280
" />
<path d="M159.4098 118.0800
L159.4098 119.5600
" />
<path d="M159.4098 121.6400
L159.4098 123.1200
" />
<path d="M159.4498 118.0890
L159.4498 119.5600
" />
<path d="M159.4498 121.6400
L159.4498 123.1110
" />
<path d="M159.4898 118.0990
L159.4898 119.5600
" />
<path d="M159.4898 121.6400
L159.4898 123.1010
" />
<path d="M159.5298 118.1090
L159.5298 119.5600
" />
<path d="M159.5298 121.6400
L159.5298 123.0910
" />
<path d="M159.5708 118.1200
L159.5708 119.5600
" />
<path d="M159.5708 121.6400
L159.5708 123.0800
" />
<path d="M159.6108 118.1320
L159.6108 119.5600
" />
<path d="M159.6108 121.6400
L159.6108 123.0680
" />
<path d="M159.6508 118.1450
L159.6508 119.5600
" />
<path d="M159.6508 121.6400
L159.6508 123.0550
" />
<path d="M159.6908 118.1580
L159.6908 119.5600
" />
<path d="M159.6908 121.6400
L159.6908 123.0420
" />
<path d="M159.7308 118.1720
L159.7308 119.5600
" />
<path d="M159.7308 121.6400
L159.7308 123.0280
" />
<path d="M159.7708 118.1860
L159.7708 119.5600
" />
<path d="M159.7708 121.6400
L159.7708 123.0140
" />
<path d="M159.8108 118.2020
L159.8108 119.5600
" />
<path d="M159.8108 121.6400
L159.8108 122.9980
" />
<path d="M159.8508 118.2180
L159.8508 119.5600
" />
<path d="M159.8508 121.6400
L159.8508 122.9820
" />
<path d="M159.8908 118.2350
L159.8908 119.5600
" />
<path d="M159.8908 121.6400
L159.8908 122.9650
" />
<path d="M159.9308 118.2520
L159.9308 119.5600
" />
<path d="M159.9308 121.6400
L159.9308 122.9480
" />
<path d="M159.9708 118.2710
L159.9708 119.5600
" />
<path d="M159.9708 121.6400
L159.9708 122.9290
" />
<path d="M160.0108 118.2900
L160.0108 119.5600
" />
<path d="M160.0108 121.6400
L160.0108 122.9100
" />
<path d="M160.0508 118.3100
L160.0508 119.5600
" />
<path d="M160.0508 121.6400
L160.0508 122.8900
" />
<path d="M160.0908 118.3320
L160.0908 119.5600
" />
<path d="M160.0908 121.6400
L160.0908 122.8680
" />
<path d="M160.1308 118.3530
L160.1308 119.5600
" />
<path d="M160.1308 121.6400
L160.1308 122.8470
" />
<path d="M160.1708 118.3760
L160.1708 119.5600
" />
<path d="M160.1708 121.6400
L160.1708 122.8240
" />
<path d="M160.2108 118.4000
L160.2108 119.5600
" />
<path d="M160.2108 121.6400
L160.2108 122.8000
" />
<path d="M160.2508 118.4250
L160.2508 119.5600
" />
<path d="M160.2508 121.6400
L160.2508 122.7750
" />
<path d="M160.2908 118.4510
L160.2908 119.5600
" />
<path d="M160.2908 121.6400
L160.2908 122.7490
" />
<path d="M160.3308 118.4780
L160.3308 119.5600
" />
<path d="M160.3308 121.6400
L160.3308 122.7220
" />
<path d="M160.3708 118.5050
L160.3708 119.5600
" />
<path d="M160.3708 121.6400
L160.3708 122.6950
" />
<path d="M160.4108 118.5350
L160.4108 119.5600
" />
<path d="M160.4108 121.6400
L160.4108 122.6650
" />
<path d="M160.4508 118.5650
L160.4508 119.5600
" />
<path d="M160.4508 121.6400
L160.4508 122.6350
" />
<path d="M160.4908 118.5960
L160.4908 119.5600
" />
<path d="M160.4908 121.6400
L160.4908 122.6040
" />
<path d="M160.5308 118.6290
L160.5308 119.5600
" />
<path d="M160.5308 121.6400
L160.5308 122.5710
" />
<path d="M160.5708 118.6630
L160.5708 119.5600
" />
<path d="M160.5708 121.6400
L160.5708 122.5370
" />
<path d="M160.6108 118.6990
L160.6108 119.5600
" />
<path d="M160.6108 121.6400
L160.6108 122.5010
" />
<path d="M160.6508 118.7360
L160.6508 119.5600
" />
<path d="M160.6508 121.6400
L160.6508 122.4640
" />
<path d="M160.6908 118.7740
L160.6908 119.5600
" />
<path d="M160.6908 121.6400
L160.6908 122.4260
" />
<path d="M160.7308 118.8150
L160.7308 119.5600
" />
<path d="M160.7308 121.6400
L160.7308 122.3850
" />
<path d="M160.7708 118.8570
L160.7708 119.5600
" />
<path d="M160.7708 121.6400
L160.7708 122.3430
" />
<path d="M160.8108 118.9010
L160.8108 119.5600
" />
<path d="M160.8108 121.6400
L160.8108 122.2990
" />
<path d="M160.8508 118.9470
L160.8508 119.5600
" />
<path d="M160.8508 121.6400
L160.8508 122.2530
" />
<path d="M160.8908 118.9950
L160.8908 119.5600
" />
<path d="M160.8908 121.6400
L160.8908 122.2050
" />
<path d="M160.9308 119.0460
L160.9308 119.5600
" />
<path d="M160.9308 121.6400
L160.9308 122.1540
" />
<path d="M160.9708 119.1000
L160.9708 119.5600
" />
<path d="M160.9708 121.6400
L160.9708 122.1000
" />
<path d="M161.0108 119.1570
L161.0108 119.5600
" />
<path d="M161.0108 121.6400
L161.0108 122.0430
" />
<path d="M161.0508 119.2170
L161.0508 119.5600
" />
<path d="M161.0508 121.6400
L161.0508 121.9830
" />
<path d="M161.0908 119.2810
L161.0908 119.5600
" />
<path d="M161.0908 121.6400
L161.0908 121.9190
" />
<path d="M161.1308 119.3490
L161.1308 119.5600
" />
<path d="M161.1308 121.6400
L161.1308 121.8510
" />
<path d="M161.1708 119.4220
L161.1708 121.7780
" />
<path d="M161.2108 119.5020
L161.2108 121.6980
" />
<path d="M161.2508 119.5890
L161.2508 121.6110
" />
<path d="M161.2908 119.6850
L161.2908 121.5150
" />
<path d="M161.3308 119.7950
L161.3308 121.4050
" />
<path d="M161.3708 119.9230
L161.3708 121.2770
" />
<path d="M161.4108 120.0820
L161.4108 121.1180
" />
<path d="M161.4508 120.3160
L161.4508 120.8840
" />
<circle cx="158.8498" cy="120.6000" r="2.6200" /> 
<path d="M157.2900 104.1800
L157.2900 104.1950
" />
<path d="M157.2900 104.1800
L161.8300 104.1800
" />
<path d="M157.2900 106.3050
L157.2900 106.3200
" />
<path d="M157.2900 106.3200
L161.8300 106.3200
" />
<path d="M161.8300 104.1800
L161.8300 104.1950
" />
<path d="M161.8300 106.3050
L161.8300 106.3200
" />
<path d="M157.2900 111.0800
L157.2900 111.0950
" />
<path d="M157.2900 111.0800
L161.8300 111.0800
" />
<path d="M157.2900 113.2050
L157.2900 113.2200
" />
<path d="M157.2900 113.2200
L161.8300 113.2200
" />
<path d="M161.8300 111.0800
L161.8300 111.0950
" />
<path d="M161.8300 113.2050
L161.8300 113.2200
" />
<path d="M123.9600 115.4000
L124.7300 115.4000
" />
<path d="M124.7300 114.0300
L124.7300 116.7700
" />
<path d="M124.7300 116.7700
L131.2700 116.7700
" />
<path d="M131.2700 114.0300
L124.7300 114.0300
" />
<path d="M131.2700 116.7700
L131.2700 114.0300
" />
<path d="M132.0400 115.4000
L131.2700 115.4000
" />
<path d="M144.4350 116.5050
L144.4350 119.5950
" />
<path d="M149.9850 118.0505 A2.9900 2.9900 0.0 0 0 144.4350 116.5052" />
<path d="M144.4350 119.5948 A2.9900 2.9900 0.0 0 0 149.9850 118.0495" />
<circle cx="146.9950" cy="118.0500" r="2.5000" /> 
<path d="M123.9600 111.3500
L124.7300 111.3500
" />
<path d="M124.7300 109.9800
L124.7300 112.7200
" />
<path d="M124.7300 112.7200
L131.2700 112.7200
" />
<path d="M131.2700 109.9800
L124.7300 109.9800
" />
<path d="M131.2700 112.7200
L131.2700 109.9800
" />
<path d="M132.0400 111.3500
L131.2700 111.3500
" />
<path d="M143.6200 127.2800
L144.9500 127.2800
" />
<path d="M143.6200 128.6100
L143.6200 127.2800
" />
<path d="M143.6200 129.8800
L143.6200 135.0200
" />
<path d="M143.6200 129.8800
L146.2800 129.8800
" />
<path d="M143.6200 135.0200
L146.2800 135.0200
" />
<path d="M146.2800 129.8800
L146.2800 135.0200
" />
<path d="M123.9600 119.4500
L124.7300 119.4500
" />
<path d="M124.7300 118.0800
L124.7300 120.8200
" />
<path d="M124.7300 120.8200
L131.2700 120.8200
" />
<path d="M131.2700 118.0800
L124.7300 118.0800
" />
<path d="M131.2700 120.8200
L131.2700 118.0800
" />
<path d="M132.0400 119.4500
L131.2700 119.4500
" />
<path d="M157.2900 107.6300
L157.2900 107.6450
" />
<path d="M157.2900 107.6300
L161.8300 107.6300
" />
<path d="M157.2900 109.7550
L157.2900 109.7700
" />
<path d="M157.2900 109.7700
L161.8300 109.7700
" />
<path d="M161.8300 107.6300
L161.8300 107.6450
" />
<path d="M161.8300 109.7550
L161.8300 109.7700
" />
<path style="fill:none; 
stroke:#F2EDA1; stroke-width:0.1000; stroke-opacity:1; 
stroke-linecap:round; stroke-linejoin:round;fill:none"
d="M 149.8500,77.4000
170.8500,77.4000
170.8500,97.4000
149.8500,97.4000
Z" /> 
<path style="fill:none; 
stroke:#F2EDA1; stroke-width:0.1000; stroke-opacity:1; 
stroke-linecap:round; stroke-linejoin:round;fill:none"
d="M 170.8500,81.9000
174.8500,81.9000
174.8500,92.9000
170.8500,92.9000
Z" /> 
</g> 
</svg>
