%TF.GenerationSoftware,KiCad,Pcbnew,8.0.3*%
%TF.CreationDate,2024-11-20T23:40:36+02:00*%
%TF.ProjectId,TDS-2,5444532d-322e-46b6-9963-61645f706362,rev?*%
%TF.SameCoordinates,Original*%
%TF.FileFunction,Legend,Bot*%
%TF.FilePolarity,Positive*%
%FSLAX46Y46*%
G04 Gerber Fmt 4.6, Leading zero omitted, Abs format (unit mm)*
G04 Created by KiCad (PCBNEW 8.0.3) date 2024-11-20 23:40:36*
%MOMM*%
%LPD*%
G01*
G04 APERTURE LIST*
%ADD10C,0.000000*%
%ADD11C,0.300000*%
G04 APERTURE END LIST*
D10*
G36*
X126100000Y-106916667D02*
G01*
X125676667Y-106916667D01*
X125676667Y-108186667D01*
X126100000Y-108186667D01*
X126100000Y-107763333D01*
X126523334Y-107763333D01*
X126523334Y-107340000D01*
X127370000Y-107340000D01*
X127370000Y-107763333D01*
X126946667Y-107763333D01*
X126946667Y-108186667D01*
X126523334Y-108186667D01*
X126523334Y-108610000D01*
X126946667Y-108610000D01*
X126946667Y-108186667D01*
X127370000Y-108186667D01*
X127370000Y-109880001D01*
X126946667Y-109880001D01*
X126946667Y-109033333D01*
X126100000Y-109033333D01*
X126100000Y-108610000D01*
X125676667Y-108610000D01*
X125676667Y-109456668D01*
X125253334Y-109456668D01*
X125253334Y-109033333D01*
X124830001Y-109033333D01*
X124830001Y-109456668D01*
X123560001Y-109456668D01*
X123560001Y-109033333D01*
X122713334Y-109033333D01*
X122713334Y-106916667D01*
X123136667Y-106916667D01*
X123136667Y-107340000D01*
X123983334Y-107340000D01*
X123983334Y-107763333D01*
X123560001Y-107763333D01*
X123560001Y-108186667D01*
X123136667Y-108186667D01*
X123136667Y-108610000D01*
X123560001Y-108610000D01*
X123560001Y-108186667D01*
X123983334Y-108186667D01*
X123983334Y-109033333D01*
X124406667Y-109033333D01*
X124406667Y-106916667D01*
X124830001Y-106916667D01*
X124830001Y-108610000D01*
X125253334Y-108610000D01*
X125253334Y-106916667D01*
X125676667Y-106916667D01*
X125676667Y-106493333D01*
X126100000Y-106493333D01*
X126100000Y-106916667D01*
G37*
G36*
X126523334Y-107340000D02*
G01*
X126100000Y-107340000D01*
X126100000Y-106916667D01*
X126523334Y-106916667D01*
X126523334Y-107340000D01*
G37*
G36*
X123983334Y-103530000D02*
G01*
X124406667Y-103530000D01*
X124406667Y-103953334D01*
X124830001Y-103953334D01*
X124830001Y-104376667D01*
X123983334Y-104376667D01*
X123983334Y-103953334D01*
X123560001Y-103953334D01*
X123560001Y-103106667D01*
X123983334Y-103106667D01*
X123983334Y-103530000D01*
G37*
G36*
X127370000Y-100566667D02*
G01*
X126946667Y-100566667D01*
X126946667Y-99296667D01*
X127370000Y-99296667D01*
X127370000Y-100566667D01*
G37*
G36*
X126100000Y-98450000D02*
G01*
X126523334Y-98450000D01*
X126523334Y-98873334D01*
X125676667Y-98873334D01*
X125676667Y-98026667D01*
X124830001Y-98026667D01*
X124830001Y-97603334D01*
X126100000Y-97603334D01*
X126100000Y-98450000D01*
G37*
G36*
X127370000Y-98450000D02*
G01*
X126946667Y-98450000D01*
X126946667Y-98026667D01*
X126523334Y-98026667D01*
X126523334Y-97603334D01*
X127370000Y-97603334D01*
X127370000Y-98450000D01*
G37*
G36*
X128216667Y-97603334D02*
G01*
X130756667Y-97603334D01*
X130756667Y-100566667D01*
X127793334Y-100566667D01*
X127793334Y-100143334D01*
X128216667Y-100143334D01*
X130333334Y-100143334D01*
X130333334Y-98026667D01*
X128216667Y-98026667D01*
X128216667Y-100143334D01*
X127793334Y-100143334D01*
X127793334Y-97603334D01*
X128216667Y-97603334D01*
G37*
G36*
X128216667Y-106493333D02*
G01*
X127370000Y-106493333D01*
X127370000Y-106070000D01*
X128216667Y-106070000D01*
X128216667Y-106493333D01*
G37*
G36*
X121443334Y-107340000D02*
G01*
X121020001Y-107340000D01*
X121020001Y-106916667D01*
X121443334Y-106916667D01*
X121443334Y-107340000D01*
G37*
G36*
X129910001Y-109033333D02*
G01*
X128640001Y-109033333D01*
X128640001Y-107763333D01*
X129910001Y-107763333D01*
X129910001Y-109033333D01*
G37*
G36*
X130756667Y-106070000D02*
G01*
X129910001Y-106070000D01*
X129910001Y-106493333D01*
X129486667Y-106493333D01*
X129486667Y-105646667D01*
X130756667Y-105646667D01*
X130756667Y-106070000D01*
G37*
G36*
X128640001Y-101413334D02*
G01*
X127793334Y-101413334D01*
X127793334Y-100990001D01*
X128640001Y-100990001D01*
X128640001Y-101413334D01*
G37*
G36*
X123983334Y-102683334D02*
G01*
X123560001Y-102683334D01*
X123560001Y-101413334D01*
X123983334Y-101413334D01*
X123983334Y-102683334D01*
G37*
G36*
X127793334Y-101836667D02*
G01*
X127370000Y-101836667D01*
X127370000Y-101413334D01*
X127793334Y-101413334D01*
X127793334Y-101836667D01*
G37*
G36*
X118903333Y-97603334D02*
G01*
X121443334Y-97603334D01*
X121443334Y-100566667D01*
X118480000Y-100566667D01*
X118480000Y-100143334D01*
X118903333Y-100143334D01*
X121020001Y-100143334D01*
X121020001Y-98026667D01*
X118903333Y-98026667D01*
X118903333Y-100143334D01*
X118480000Y-100143334D01*
X118480000Y-97603334D01*
X118903333Y-97603334D01*
G37*
G36*
X129486667Y-100990001D02*
G01*
X130756667Y-100990001D01*
X130756667Y-102260001D01*
X129910001Y-102260001D01*
X129910001Y-102683334D01*
X129063334Y-102683334D01*
X129063334Y-102260001D01*
X129486667Y-102260001D01*
X129486667Y-101836667D01*
X129910001Y-101836667D01*
X129910001Y-101413334D01*
X129486667Y-101413334D01*
X129486667Y-101836667D01*
X129063334Y-101836667D01*
X129063334Y-100990001D01*
X129486667Y-100990001D01*
G37*
G36*
X129910001Y-99720000D02*
G01*
X128640001Y-99720000D01*
X128640001Y-98450000D01*
X129910001Y-98450000D01*
X129910001Y-99720000D01*
G37*
G36*
X128216667Y-102260001D02*
G01*
X127793334Y-102260001D01*
X127793334Y-101836667D01*
X128216667Y-101836667D01*
X128216667Y-102260001D01*
G37*
G36*
X126523334Y-109880001D02*
G01*
X126100000Y-109880001D01*
X126100000Y-109456668D01*
X126523334Y-109456668D01*
X126523334Y-109880001D01*
G37*
G36*
X126946667Y-101413334D02*
G01*
X126946667Y-102260001D01*
X126523334Y-102260001D01*
X126523334Y-102683334D01*
X126946667Y-102683334D01*
X126946667Y-103106667D01*
X126523334Y-103106667D01*
X126523334Y-103530000D01*
X126946667Y-103530000D01*
X126946667Y-103106667D01*
X127370000Y-103106667D01*
X127370000Y-102683334D01*
X126946667Y-102683334D01*
X126946667Y-102260001D01*
X127370000Y-102260001D01*
X127370000Y-102683334D01*
X128216667Y-102683334D01*
X128216667Y-102260001D01*
X128640001Y-102260001D01*
X128640001Y-103106667D01*
X129063334Y-103106667D01*
X129486667Y-103106667D01*
X129486667Y-103530000D01*
X129063334Y-103530000D01*
X129063334Y-103953334D01*
X129486667Y-103953334D01*
X129486667Y-103530000D01*
X130333334Y-103530000D01*
X130333334Y-104376667D01*
X129910001Y-104376667D01*
X129910001Y-104800000D01*
X130333334Y-104800000D01*
X130333334Y-105223334D01*
X129486667Y-105223334D01*
X129486667Y-105646667D01*
X129063334Y-105646667D01*
X129063334Y-106070000D01*
X128216667Y-106070000D01*
X128216667Y-105646667D01*
X127793334Y-105646667D01*
X127793334Y-105223334D01*
X128216667Y-105223334D01*
X128216667Y-105646667D01*
X128640001Y-105646667D01*
X128640001Y-105223334D01*
X129063334Y-105223334D01*
X129063334Y-104800000D01*
X129486667Y-104800000D01*
X129486667Y-104376667D01*
X129910001Y-104376667D01*
X129910001Y-103953334D01*
X129486667Y-103953334D01*
X129486667Y-104376667D01*
X128640001Y-104376667D01*
X128640001Y-105223334D01*
X128216667Y-105223334D01*
X128216667Y-104800000D01*
X127793334Y-104800000D01*
X127793334Y-104376667D01*
X128640001Y-104376667D01*
X128640001Y-103953334D01*
X127793334Y-103953334D01*
X127793334Y-104376667D01*
X127370000Y-104376667D01*
X127370000Y-103953334D01*
X127793334Y-103953334D01*
X127793334Y-103530000D01*
X128216667Y-103530000D01*
X128216667Y-103106667D01*
X127370000Y-103106667D01*
X127370000Y-103953334D01*
X126523334Y-103953334D01*
X126523334Y-104376667D01*
X126946667Y-104376667D01*
X126946667Y-104800000D01*
X126100000Y-104800000D01*
X126100000Y-105223334D01*
X126523334Y-105223334D01*
X126523334Y-106070000D01*
X124406667Y-106070000D01*
X124406667Y-106493333D01*
X123983334Y-106493333D01*
X123983334Y-106070000D01*
X123560001Y-106070000D01*
X123560001Y-104800000D01*
X122713334Y-104800000D01*
X122713334Y-105223334D01*
X123136667Y-105223334D01*
X123136667Y-106070000D01*
X122713334Y-106070000D01*
X122713334Y-106916667D01*
X122290001Y-106916667D01*
X122290001Y-108186667D01*
X121866668Y-108186667D01*
X121866668Y-109033333D01*
X121020001Y-109033333D01*
X121020001Y-109456668D01*
X120596668Y-109456668D01*
X120596668Y-108610000D01*
X121020001Y-108610000D01*
X121020001Y-108186667D01*
X120596668Y-108186667D01*
X120596668Y-108610000D01*
X120173334Y-108610000D01*
X120173334Y-109456668D01*
X119750001Y-109456668D01*
X119750001Y-109880001D01*
X119326668Y-109880001D01*
X119326668Y-109033333D01*
X118903333Y-109033333D01*
X118903333Y-108610000D01*
X119326668Y-108610000D01*
X119750001Y-108610000D01*
X119750001Y-108186667D01*
X119326668Y-108186667D01*
X119326668Y-108610000D01*
X118903333Y-108610000D01*
X118903333Y-108186667D01*
X118480000Y-108186667D01*
X118480000Y-107763333D01*
X118903333Y-107763333D01*
X118903333Y-107340000D01*
X118480000Y-107340000D01*
X118480000Y-106916667D01*
X118903333Y-106916667D01*
X118903333Y-106070000D01*
X119326668Y-106070000D01*
X119326668Y-106493333D01*
X119750001Y-106493333D01*
X119750001Y-106916667D01*
X119326668Y-106916667D01*
X119326668Y-107763333D01*
X119750001Y-107763333D01*
X119750001Y-108186667D01*
X120173334Y-108186667D01*
X120173334Y-107763333D01*
X120596668Y-107763333D01*
X121866668Y-107763333D01*
X121866668Y-106493333D01*
X120596668Y-106493333D01*
X120596668Y-107763333D01*
X120173334Y-107763333D01*
X119750001Y-107763333D01*
X119750001Y-107340000D01*
X120173334Y-107340000D01*
X120173334Y-106070000D01*
X120596668Y-106070000D01*
X121020001Y-106070000D01*
X121020001Y-105646667D01*
X120596668Y-105646667D01*
X120596668Y-106070000D01*
X120173334Y-106070000D01*
X119326668Y-106070000D01*
X119326668Y-105223334D01*
X120596668Y-105223334D01*
X120596668Y-104800000D01*
X120173334Y-104800000D01*
X120173334Y-104376667D01*
X120596668Y-104376667D01*
X120596668Y-104800000D01*
X121020001Y-104800000D01*
X121020001Y-103953334D01*
X121443334Y-103953334D01*
X121443334Y-104800000D01*
X121020001Y-104800000D01*
X121020001Y-105223334D01*
X121443334Y-105223334D01*
X121443334Y-106070000D01*
X121866668Y-106070000D01*
X121866668Y-105646667D01*
X122290001Y-105646667D01*
X122290001Y-104800000D01*
X121866668Y-104800000D01*
X121866668Y-104376667D01*
X123136667Y-104376667D01*
X123136667Y-103953334D01*
X123560001Y-103953334D01*
X123560001Y-104376667D01*
X123983334Y-104376667D01*
X123983334Y-104800000D01*
X124830001Y-104800000D01*
X124830001Y-105223334D01*
X125253334Y-105223334D01*
X125253334Y-104800000D01*
X126100000Y-104800000D01*
X126100000Y-104376667D01*
X125676667Y-104376667D01*
X125676667Y-103953334D01*
X126100000Y-103953334D01*
X126100000Y-103530000D01*
X125253334Y-103530000D01*
X125253334Y-103953334D01*
X124830001Y-103953334D01*
X124830001Y-103106667D01*
X125253334Y-103106667D01*
X125253334Y-102683334D01*
X125676667Y-102683334D01*
X125676667Y-103106667D01*
X126100000Y-103106667D01*
X126100000Y-102683334D01*
X125676667Y-102683334D01*
X125676667Y-102260001D01*
X125253334Y-102260001D01*
X125253334Y-101836667D01*
X126100000Y-101836667D01*
X126100000Y-102260001D01*
X126523334Y-102260001D01*
X126523334Y-101413334D01*
X126946667Y-101413334D01*
G37*
G36*
X120596668Y-109456668D02*
G01*
X120596668Y-109880001D01*
X120173334Y-109880001D01*
X120173334Y-109456668D01*
X120596668Y-109456668D01*
G37*
G36*
X119326668Y-101413334D02*
G01*
X119750001Y-101413334D01*
X119750001Y-101836667D01*
X119326668Y-101836667D01*
X119326668Y-102260001D01*
X119750001Y-102260001D01*
X119750001Y-101836667D01*
X120173334Y-101836667D01*
X120173334Y-102260001D01*
X119750001Y-102260001D01*
X119750001Y-102683334D01*
X120173334Y-102683334D01*
X120173334Y-103106667D01*
X120596668Y-103106667D01*
X120596668Y-102683334D01*
X121020001Y-102683334D01*
X121020001Y-103106667D01*
X120596668Y-103106667D01*
X120596668Y-103530000D01*
X121020001Y-103530000D01*
X121020001Y-103953334D01*
X120173334Y-103953334D01*
X120173334Y-104376667D01*
X119750001Y-104376667D01*
X119750001Y-104800000D01*
X119326668Y-104800000D01*
X119326668Y-103953334D01*
X119750001Y-103953334D01*
X120173334Y-103953334D01*
X120173334Y-103106667D01*
X119750001Y-103106667D01*
X119750001Y-103953334D01*
X119326668Y-103953334D01*
X119326668Y-103530000D01*
X118480000Y-103530000D01*
X118480000Y-102683334D01*
X118903333Y-102683334D01*
X118903333Y-103106667D01*
X119326668Y-103106667D01*
X119326668Y-102683334D01*
X118903333Y-102683334D01*
X118903333Y-102260001D01*
X118480000Y-102260001D01*
X118480000Y-101836667D01*
X118903333Y-101836667D01*
X118903333Y-101413334D01*
X118480000Y-101413334D01*
X118480000Y-100990001D01*
X119326668Y-100990001D01*
X119326668Y-101413334D01*
G37*
G36*
X130756667Y-104376667D02*
G01*
X130756667Y-104800000D01*
X130333334Y-104800000D01*
X130333334Y-104376667D01*
X130756667Y-104376667D01*
G37*
G36*
X124406667Y-98450000D02*
G01*
X124830001Y-98450000D01*
X124830001Y-98873334D01*
X124406667Y-98873334D01*
X124406667Y-99296667D01*
X123983334Y-99296667D01*
X123983334Y-100566667D01*
X124406667Y-100566667D01*
X124406667Y-99296667D01*
X125253334Y-99296667D01*
X125253334Y-99720000D01*
X124830001Y-99720000D01*
X124830001Y-100566667D01*
X124406667Y-100566667D01*
X124406667Y-100990001D01*
X125253334Y-100990001D01*
X125253334Y-101413334D01*
X124830001Y-101413334D01*
X124830001Y-102260001D01*
X124406667Y-102260001D01*
X124406667Y-101413334D01*
X123983334Y-101413334D01*
X123983334Y-100990001D01*
X122713334Y-100990001D01*
X122713334Y-101413334D01*
X123136667Y-101413334D01*
X123136667Y-102683334D01*
X123560001Y-102683334D01*
X123560001Y-103106667D01*
X123136667Y-103106667D01*
X123136667Y-103953334D01*
X122713334Y-103953334D01*
X122713334Y-103530000D01*
X121866668Y-103530000D01*
X121866668Y-103953334D01*
X121443334Y-103953334D01*
X121443334Y-103106667D01*
X121866668Y-103106667D01*
X121866668Y-102683334D01*
X122290001Y-102683334D01*
X122290001Y-103106667D01*
X122713334Y-103106667D01*
X122713334Y-102683334D01*
X122290001Y-102683334D01*
X122290001Y-102260001D01*
X122713334Y-102260001D01*
X122713334Y-101836667D01*
X122290001Y-101836667D01*
X122290001Y-100990001D01*
X122713334Y-100990001D01*
X122713334Y-100566667D01*
X123136667Y-100566667D01*
X123560001Y-100566667D01*
X123560001Y-100143334D01*
X123136667Y-100143334D01*
X123136667Y-100566667D01*
X122713334Y-100566667D01*
X122713334Y-99720000D01*
X121866668Y-99720000D01*
X121866668Y-99296667D01*
X123136667Y-99296667D01*
X123136667Y-99720000D01*
X123560001Y-99720000D01*
X123560001Y-99296667D01*
X123983334Y-99296667D01*
X123983334Y-98873334D01*
X123560001Y-98873334D01*
X123560001Y-98450000D01*
X123983334Y-98450000D01*
X123983334Y-98026667D01*
X124406667Y-98026667D01*
X124406667Y-98450000D01*
G37*
G36*
X120596668Y-102260001D02*
G01*
X120596668Y-102683334D01*
X120173334Y-102683334D01*
X120173334Y-102260001D01*
X120596668Y-102260001D01*
G37*
G36*
X125676667Y-99720000D02*
G01*
X126523334Y-99720000D01*
X126523334Y-101413334D01*
X125676667Y-101413334D01*
X125676667Y-100566667D01*
X126100000Y-100566667D01*
X126100000Y-100143334D01*
X125676667Y-100143334D01*
X125676667Y-100566667D01*
X125253334Y-100566667D01*
X125253334Y-99720000D01*
X125676667Y-99720000D01*
G37*
G36*
X123560001Y-99296667D02*
G01*
X123136667Y-99296667D01*
X123136667Y-98873334D01*
X123560001Y-98873334D01*
X123560001Y-99296667D01*
G37*
G36*
X122290001Y-100566667D02*
G01*
X121866668Y-100566667D01*
X121866668Y-100143334D01*
X122290001Y-100143334D01*
X122290001Y-100566667D01*
G37*
G36*
X118903333Y-109456668D02*
G01*
X118480000Y-109456668D01*
X118480000Y-109033333D01*
X118903333Y-109033333D01*
X118903333Y-109456668D01*
G37*
G36*
X121866668Y-101836667D02*
G01*
X121020001Y-101836667D01*
X121020001Y-101413334D01*
X121443334Y-101413334D01*
X121443334Y-100990001D01*
X121866668Y-100990001D01*
X121866668Y-101836667D01*
G37*
G36*
X122290001Y-98450000D02*
G01*
X123136667Y-98450000D01*
X123136667Y-98873334D01*
X121866668Y-98873334D01*
X121866668Y-97603334D01*
X122290001Y-97603334D01*
X122290001Y-98450000D01*
G37*
G36*
X123136667Y-109880001D02*
G01*
X122713334Y-109880001D01*
X122713334Y-109456668D01*
X123136667Y-109456668D01*
X123136667Y-109880001D01*
G37*
G36*
X125253334Y-104800000D02*
G01*
X124830001Y-104800000D01*
X124830001Y-104376667D01*
X125253334Y-104376667D01*
X125253334Y-104800000D01*
G37*
G36*
X118903333Y-104800000D02*
G01*
X118480000Y-104800000D01*
X118480000Y-104376667D01*
X118903333Y-104376667D01*
X118903333Y-104800000D01*
G37*
G36*
X120596668Y-99720000D02*
G01*
X119326668Y-99720000D01*
X119326668Y-98450000D01*
X120596668Y-98450000D01*
X120596668Y-99720000D01*
G37*
G36*
X118903333Y-105646667D02*
G01*
X118480000Y-105646667D01*
X118480000Y-105223334D01*
X118903333Y-105223334D01*
X118903333Y-105646667D01*
G37*
G36*
X127370000Y-105223334D02*
G01*
X126946667Y-105223334D01*
X126946667Y-104800000D01*
X127370000Y-104800000D01*
X127370000Y-105223334D01*
G37*
G36*
X127370000Y-106070000D02*
G01*
X126946667Y-106070000D01*
X126946667Y-105646667D01*
X127370000Y-105646667D01*
X127370000Y-106070000D01*
G37*
G36*
X122713334Y-109456668D02*
G01*
X122290001Y-109456668D01*
X122290001Y-109033333D01*
X122713334Y-109033333D01*
X122713334Y-109456668D01*
G37*
G36*
X121020001Y-101413334D02*
G01*
X120173334Y-101413334D01*
X120173334Y-100990001D01*
X121020001Y-100990001D01*
X121020001Y-101413334D01*
G37*
G36*
X128216667Y-106916667D02*
G01*
X130756667Y-106916667D01*
X130756667Y-109880001D01*
X127793334Y-109880001D01*
X127793334Y-109456668D01*
X128216667Y-109456668D01*
X130333334Y-109456668D01*
X130333334Y-107340000D01*
X128216667Y-107340000D01*
X128216667Y-109456668D01*
X127793334Y-109456668D01*
X127793334Y-106916667D01*
X128216667Y-106916667D01*
G37*
G36*
X123983334Y-106916667D02*
G01*
X123136667Y-106916667D01*
X123136667Y-106493333D01*
X123983334Y-106493333D01*
X123983334Y-106916667D01*
G37*
G36*
X123560001Y-98026667D02*
G01*
X123136667Y-98026667D01*
X123136667Y-97603334D01*
X123560001Y-97603334D01*
X123560001Y-98026667D01*
G37*
G36*
X126946667Y-99296667D02*
G01*
X126523334Y-99296667D01*
X126523334Y-98873334D01*
X126946667Y-98873334D01*
X126946667Y-99296667D01*
G37*
G36*
X124406667Y-103106667D02*
G01*
X123983334Y-103106667D01*
X123983334Y-102683334D01*
X124406667Y-102683334D01*
X124406667Y-103106667D01*
G37*
G36*
X121443334Y-109880001D02*
G01*
X121020001Y-109880001D01*
X121020001Y-109456668D01*
X121443334Y-109456668D01*
X121443334Y-109880001D01*
G37*
G36*
X130756667Y-103530000D02*
G01*
X130333334Y-103530000D01*
X130333334Y-102683334D01*
X130756667Y-102683334D01*
X130756667Y-103530000D01*
G37*
D11*
G36*
X126290806Y-127295603D02*
G01*
X123736025Y-127295603D01*
X123736025Y-125917096D01*
X126290806Y-125917096D01*
X126290806Y-127295603D01*
G37*
G36*
X127757387Y-132052136D02*
G01*
X122269444Y-132052136D01*
X122269444Y-130089741D01*
X122825000Y-130089741D01*
X122825000Y-130793161D01*
X126290806Y-130793161D01*
X126290806Y-131496580D01*
X127201831Y-131496580D01*
X127201831Y-129386322D01*
X126290806Y-129386322D01*
X126290806Y-130089741D01*
X122825000Y-130089741D01*
X122269444Y-130089741D01*
X122269444Y-125888764D01*
X122825000Y-125888764D01*
X122825000Y-127295603D01*
X122825000Y-127999023D01*
X127201831Y-127999023D01*
X127201831Y-125888764D01*
X126342096Y-125888764D01*
X126342096Y-125185345D01*
X123736025Y-125185345D01*
X123736025Y-125888764D01*
X122825000Y-125888764D01*
X122269444Y-125888764D01*
X122269444Y-123801953D01*
X122825000Y-123801953D01*
X123736025Y-123801953D01*
X123736025Y-123098534D01*
X124595760Y-123098534D01*
X125482362Y-123098534D01*
X125482362Y-123801953D01*
X126342096Y-123801953D01*
X126342096Y-123098534D01*
X127201831Y-123098534D01*
X127201831Y-120988276D01*
X126290806Y-120988276D01*
X126290806Y-123098534D01*
X125482362Y-123098534D01*
X125482362Y-121691695D01*
X124595760Y-121691695D01*
X124595760Y-123098534D01*
X123736025Y-123098534D01*
X123736025Y-121691695D01*
X124595760Y-121691695D01*
X124595760Y-120988276D01*
X123736025Y-120988276D01*
X123736025Y-121691695D01*
X122825000Y-121691695D01*
X122825000Y-123801953D01*
X122269444Y-123801953D01*
X122269444Y-119604884D01*
X124544469Y-119604884D01*
X125455495Y-119604884D01*
X125455495Y-117494626D01*
X124544469Y-117494626D01*
X124544469Y-119604884D01*
X122269444Y-119604884D01*
X122269444Y-116107327D01*
X122825000Y-116107327D01*
X124576221Y-116107327D01*
X124576221Y-115403907D01*
X123736025Y-115403907D01*
X123736025Y-113997069D01*
X124576221Y-113997069D01*
X124576221Y-115403907D01*
X125482362Y-115403907D01*
X125482362Y-113997069D01*
X126290806Y-113997069D01*
X126290806Y-116107327D01*
X127201831Y-116107327D01*
X127201831Y-113997069D01*
X126342096Y-113997069D01*
X126342096Y-113293649D01*
X125482362Y-113293649D01*
X125482362Y-113997069D01*
X124576221Y-113997069D01*
X123736025Y-113997069D01*
X123736025Y-113293649D01*
X122825000Y-113293649D01*
X122825000Y-116107327D01*
X122269444Y-116107327D01*
X122269444Y-112738093D01*
X127757387Y-112738093D01*
X127757387Y-132052136D01*
G37*
X154159774Y-138000828D02*
X153302632Y-138000828D01*
X153731203Y-139500828D02*
X153731203Y-138000828D01*
X152159775Y-138500828D02*
X152159775Y-139500828D01*
X152802632Y-138500828D02*
X152802632Y-139286542D01*
X152802632Y-139286542D02*
X152731203Y-139429400D01*
X152731203Y-139429400D02*
X152588346Y-139500828D01*
X152588346Y-139500828D02*
X152374060Y-139500828D01*
X152374060Y-139500828D02*
X152231203Y-139429400D01*
X152231203Y-139429400D02*
X152159775Y-139357971D01*
X150802632Y-139500828D02*
X150802632Y-138000828D01*
X150802632Y-139429400D02*
X150945489Y-139500828D01*
X150945489Y-139500828D02*
X151231203Y-139500828D01*
X151231203Y-139500828D02*
X151374060Y-139429400D01*
X151374060Y-139429400D02*
X151445489Y-139357971D01*
X151445489Y-139357971D02*
X151516917Y-139215114D01*
X151516917Y-139215114D02*
X151516917Y-138786542D01*
X151516917Y-138786542D02*
X151445489Y-138643685D01*
X151445489Y-138643685D02*
X151374060Y-138572257D01*
X151374060Y-138572257D02*
X151231203Y-138500828D01*
X151231203Y-138500828D02*
X150945489Y-138500828D01*
X150945489Y-138500828D02*
X150802632Y-138572257D01*
X149874060Y-139500828D02*
X150016917Y-139429400D01*
X150016917Y-139429400D02*
X150088346Y-139357971D01*
X150088346Y-139357971D02*
X150159774Y-139215114D01*
X150159774Y-139215114D02*
X150159774Y-138786542D01*
X150159774Y-138786542D02*
X150088346Y-138643685D01*
X150088346Y-138643685D02*
X150016917Y-138572257D01*
X150016917Y-138572257D02*
X149874060Y-138500828D01*
X149874060Y-138500828D02*
X149659774Y-138500828D01*
X149659774Y-138500828D02*
X149516917Y-138572257D01*
X149516917Y-138572257D02*
X149445489Y-138643685D01*
X149445489Y-138643685D02*
X149374060Y-138786542D01*
X149374060Y-138786542D02*
X149374060Y-139215114D01*
X149374060Y-139215114D02*
X149445489Y-139357971D01*
X149445489Y-139357971D02*
X149516917Y-139429400D01*
X149516917Y-139429400D02*
X149659774Y-139500828D01*
X149659774Y-139500828D02*
X149874060Y-139500828D01*
X148731203Y-139500828D02*
X148731203Y-138500828D01*
X148731203Y-138786542D02*
X148659774Y-138643685D01*
X148659774Y-138643685D02*
X148588346Y-138572257D01*
X148588346Y-138572257D02*
X148445488Y-138500828D01*
X148445488Y-138500828D02*
X148302631Y-138500828D01*
X146731203Y-139429400D02*
X146516918Y-139500828D01*
X146516918Y-139500828D02*
X146159775Y-139500828D01*
X146159775Y-139500828D02*
X146016918Y-139429400D01*
X146016918Y-139429400D02*
X145945489Y-139357971D01*
X145945489Y-139357971D02*
X145874060Y-139215114D01*
X145874060Y-139215114D02*
X145874060Y-139072257D01*
X145874060Y-139072257D02*
X145945489Y-138929400D01*
X145945489Y-138929400D02*
X146016918Y-138857971D01*
X146016918Y-138857971D02*
X146159775Y-138786542D01*
X146159775Y-138786542D02*
X146445489Y-138715114D01*
X146445489Y-138715114D02*
X146588346Y-138643685D01*
X146588346Y-138643685D02*
X146659775Y-138572257D01*
X146659775Y-138572257D02*
X146731203Y-138429400D01*
X146731203Y-138429400D02*
X146731203Y-138286542D01*
X146731203Y-138286542D02*
X146659775Y-138143685D01*
X146659775Y-138143685D02*
X146588346Y-138072257D01*
X146588346Y-138072257D02*
X146445489Y-138000828D01*
X146445489Y-138000828D02*
X146088346Y-138000828D01*
X146088346Y-138000828D02*
X145874060Y-138072257D01*
X145231204Y-139357971D02*
X145159775Y-139429400D01*
X145159775Y-139429400D02*
X145231204Y-139500828D01*
X145231204Y-139500828D02*
X145302632Y-139429400D01*
X145302632Y-139429400D02*
X145231204Y-139357971D01*
X145231204Y-139357971D02*
X145231204Y-139500828D01*
X143374061Y-139429400D02*
X143374061Y-139500828D01*
X143374061Y-139500828D02*
X143445489Y-139643685D01*
X143445489Y-139643685D02*
X143516918Y-139715114D01*
X142802632Y-139429400D02*
X142802632Y-139500828D01*
X142802632Y-139500828D02*
X142874061Y-139643685D01*
X142874061Y-139643685D02*
X142945489Y-139715114D01*
X141731204Y-138715114D02*
X142231204Y-138715114D01*
X142231204Y-139500828D02*
X142231204Y-138000828D01*
X142231204Y-138000828D02*
X141516918Y-138000828D01*
X140731204Y-139500828D02*
X140874061Y-139429400D01*
X140874061Y-139429400D02*
X140945490Y-139286542D01*
X140945490Y-139286542D02*
X140945490Y-138000828D01*
X139516919Y-139500828D02*
X139516919Y-138715114D01*
X139516919Y-138715114D02*
X139588347Y-138572257D01*
X139588347Y-138572257D02*
X139731204Y-138500828D01*
X139731204Y-138500828D02*
X140016919Y-138500828D01*
X140016919Y-138500828D02*
X140159776Y-138572257D01*
X139516919Y-139429400D02*
X139659776Y-139500828D01*
X139659776Y-139500828D02*
X140016919Y-139500828D01*
X140016919Y-139500828D02*
X140159776Y-139429400D01*
X140159776Y-139429400D02*
X140231204Y-139286542D01*
X140231204Y-139286542D02*
X140231204Y-139143685D01*
X140231204Y-139143685D02*
X140159776Y-139000828D01*
X140159776Y-139000828D02*
X140016919Y-138929400D01*
X140016919Y-138929400D02*
X139659776Y-138929400D01*
X139659776Y-138929400D02*
X139516919Y-138857971D01*
X140159776Y-137929400D02*
X140088347Y-138072257D01*
X140088347Y-138072257D02*
X139945490Y-138143685D01*
X139945490Y-138143685D02*
X139802633Y-138143685D01*
X139802633Y-138143685D02*
X139659776Y-138072257D01*
X139659776Y-138072257D02*
X139588347Y-137929400D01*
X138159776Y-139429400D02*
X138302633Y-139500828D01*
X138302633Y-139500828D02*
X138588347Y-139500828D01*
X138588347Y-139500828D02*
X138731204Y-139429400D01*
X138731204Y-139429400D02*
X138802633Y-139357971D01*
X138802633Y-139357971D02*
X138874061Y-139215114D01*
X138874061Y-139215114D02*
X138874061Y-138786542D01*
X138874061Y-138786542D02*
X138802633Y-138643685D01*
X138802633Y-138643685D02*
X138731204Y-138572257D01*
X138731204Y-138572257D02*
X138588347Y-138500828D01*
X138588347Y-138500828D02*
X138302633Y-138500828D01*
X138302633Y-138500828D02*
X138159776Y-138572257D01*
X136874062Y-139500828D02*
X136874062Y-138715114D01*
X136874062Y-138715114D02*
X136945490Y-138572257D01*
X136945490Y-138572257D02*
X137088347Y-138500828D01*
X137088347Y-138500828D02*
X137374062Y-138500828D01*
X137374062Y-138500828D02*
X137516919Y-138572257D01*
X136874062Y-139429400D02*
X137016919Y-139500828D01*
X137016919Y-139500828D02*
X137374062Y-139500828D01*
X137374062Y-139500828D02*
X137516919Y-139429400D01*
X137516919Y-139429400D02*
X137588347Y-139286542D01*
X137588347Y-139286542D02*
X137588347Y-139143685D01*
X137588347Y-139143685D02*
X137516919Y-139000828D01*
X137516919Y-139000828D02*
X137374062Y-138929400D01*
X137374062Y-138929400D02*
X137016919Y-138929400D01*
X137016919Y-138929400D02*
X136874062Y-138857971D01*
X137516919Y-137929400D02*
X137445490Y-138072257D01*
X137445490Y-138072257D02*
X137302633Y-138143685D01*
X137302633Y-138143685D02*
X137159776Y-138143685D01*
X137159776Y-138143685D02*
X137016919Y-138072257D01*
X137016919Y-138072257D02*
X136945490Y-137929400D01*
X136159776Y-139500828D02*
X136159776Y-138500828D01*
X136159776Y-138786542D02*
X136088347Y-138643685D01*
X136088347Y-138643685D02*
X136016919Y-138572257D01*
X136016919Y-138572257D02*
X135874061Y-138500828D01*
X135874061Y-138500828D02*
X135731204Y-138500828D01*
X135231205Y-139500828D02*
X135231205Y-138500828D01*
X135231205Y-138000828D02*
X135302633Y-138072257D01*
X135302633Y-138072257D02*
X135231205Y-138143685D01*
X135231205Y-138143685D02*
X135159776Y-138072257D01*
X135159776Y-138072257D02*
X135231205Y-138000828D01*
X135231205Y-138000828D02*
X135231205Y-138143685D01*
X133874062Y-139429400D02*
X134016919Y-139500828D01*
X134016919Y-139500828D02*
X134302633Y-139500828D01*
X134302633Y-139500828D02*
X134445490Y-139429400D01*
X134445490Y-139429400D02*
X134516919Y-139357971D01*
X134516919Y-139357971D02*
X134588347Y-139215114D01*
X134588347Y-139215114D02*
X134588347Y-138786542D01*
X134588347Y-138786542D02*
X134516919Y-138643685D01*
X134516919Y-138643685D02*
X134445490Y-138572257D01*
X134445490Y-138572257D02*
X134302633Y-138500828D01*
X134302633Y-138500828D02*
X134016919Y-138500828D01*
X134016919Y-138500828D02*
X133874062Y-138572257D01*
X132588348Y-139500828D02*
X132588348Y-138715114D01*
X132588348Y-138715114D02*
X132659776Y-138572257D01*
X132659776Y-138572257D02*
X132802633Y-138500828D01*
X132802633Y-138500828D02*
X133088348Y-138500828D01*
X133088348Y-138500828D02*
X133231205Y-138572257D01*
X132588348Y-139429400D02*
X132731205Y-139500828D01*
X132731205Y-139500828D02*
X133088348Y-139500828D01*
X133088348Y-139500828D02*
X133231205Y-139429400D01*
X133231205Y-139429400D02*
X133302633Y-139286542D01*
X133302633Y-139286542D02*
X133302633Y-139143685D01*
X133302633Y-139143685D02*
X133231205Y-139000828D01*
X133231205Y-139000828D02*
X133088348Y-138929400D01*
X133088348Y-138929400D02*
X132731205Y-138929400D01*
X132731205Y-138929400D02*
X132588348Y-138857971D01*
X133231205Y-137929400D02*
X133159776Y-138072257D01*
X133159776Y-138072257D02*
X133016919Y-138143685D01*
X133016919Y-138143685D02*
X132874062Y-138143685D01*
X132874062Y-138143685D02*
X132731205Y-138072257D01*
X132731205Y-138072257D02*
X132659776Y-137929400D01*
X131874062Y-138000828D02*
X131874062Y-138072257D01*
X131874062Y-138072257D02*
X131945490Y-138215114D01*
X131945490Y-138215114D02*
X132016919Y-138286542D01*
X131302633Y-138000828D02*
X131302633Y-138072257D01*
X131302633Y-138072257D02*
X131374062Y-138215114D01*
X131374062Y-138215114D02*
X131445490Y-138286542D01*
M02*
