M48
; DRILL file {KiCad 8.0.3} date 2024-11-20T23:40:38+0200
; FORMAT={-:-/ absolute / inch / decimal}
; #@! TF.CreationDate,2024-11-20T23:40:38+02:00
; #@! TF.GenerationSoftware,Kicad,Pcbnew,8.0.3
; #@! TF.FileFunction,Plated,1,2,PTH
FMAT,2
INCH
; #@! TA.AperFunction,Plated,PTH,ComponentDrill
T1C0.0315
; #@! TA.AperFunction,Plated,PTH,ComponentDrill
T2C0.0354
; #@! TA.AperFunction,Plated,PTH,ComponentDrill
T3C0.0394
; #@! TA.AperFunction,Plated,PTH,ComponentDrill
T4C0.0433
; #@! TA.AperFunction,Plated,PTH,ComponentDrill
T5C0.0570
; #@! TA.AperFunction,Plated,PTH,ComponentDrill
T6C0.1260
%
G90
G05
T1
X5.2559Y-3.8748
X5.2559Y-4.2748
X5.374Y-3.8748
X5.374Y-4.2748
X5.4102Y-2.5984
X5.5Y-3.9323
X5.5Y-4.0323
X5.5Y-4.1323
X5.5Y-4.2323
X5.5512Y-4.3575
X5.5512Y-4.4685
X5.748Y-4.3575
X5.748Y-4.4685
X5.8Y-3.9323
X5.8Y-4.0323
X5.8Y-4.1323
X5.8Y-4.2323
X5.8102Y-2.5984
X5.8661Y-2.3622
X5.8661Y-2.4606
X5.9024Y-3.878
X5.9024Y-3.9961
X5.9024Y-4.1142
X5.9024Y-4.2323
X6.048Y-2.6024
X6.3024Y-3.878
X6.3024Y-3.9961
X6.3024Y-4.1142
X6.3024Y-4.2323
X6.3976Y-4.0157
X6.3976Y-4.2126
X6.448Y-2.6024
X6.4961Y-4.0157
X6.4961Y-4.2126
T2
X5.6142Y-2.3514
X5.6142Y-2.4514
T3
X4.9291Y-2.4764
X5.0276Y-2.4764
X5.126Y-2.4764
X6.1457Y-2.4744
X6.2441Y-2.4744
X6.3425Y-2.4744
T4
X5.9024Y-4.3583
X5.9024Y-4.4882
X6.3024Y-4.3583
X6.3024Y-4.4882
T5
X4.7787Y-2.8465
X4.7787Y-3.4843
X5.0268Y-2.8465
X5.0268Y-3.4843
X5.2752Y-2.8465
X5.2752Y-3.4843
X5.9961Y-2.8469
X5.9961Y-3.4846
X6.2445Y-2.8468
X6.2445Y-3.4846
X6.4925Y-2.8468
X6.4925Y-3.4846
T6
X4.8091Y-1.8858
X4.8091Y-5.4291
X6.4606Y-5.4291
X6.4626Y-1.8858
T3
G00X5.4075Y-4.7362
M15
G01X5.4587Y-4.7362
M16
G05
G00X5.4075Y-4.9213
M15
G01X5.4587Y-4.9213
M16
G05
G00X5.4075Y-5.1063
M15
G01X5.4587Y-5.1063
M16
G05
G00X5.4508Y-1.998
M15
G01X5.4508Y-2.0768
M16
G05
G00X5.6752Y-1.9193
M15
G01X5.5965Y-1.9193
M16
G05
G00X5.685Y-2.1634
M15
G01X5.5866Y-2.1634
M16
G05
G00X5.6161Y-4.7362
M15
G01X5.6673Y-4.7362
M16
G05
G00X5.6161Y-4.9213
M15
G01X5.6673Y-4.9213
M16
G05
G00X5.6161Y-5.1063
M15
G01X5.6673Y-5.1063
M16
G05
G00X5.8248Y-4.7362
M15
G01X5.876Y-4.7362
M16
G05
G00X5.8248Y-4.9213
M15
G01X5.876Y-4.9213
M16
G05
G00X5.8248Y-5.1063
M15
G01X5.876Y-5.1063
M16
G05
T4
G00X4.8386Y-2.1949
M15
G01X4.8386Y-2.1673
M16
G05
G00X5.2165Y-2.1949
M15
G01X5.2165Y-2.1673
M16
G05
G00X6.0551Y-2.1929
M15
G01X6.0551Y-2.1654
M16
G05
G00X6.4331Y-2.1929
M15
G01X6.4331Y-2.1654
M16
G05
M30
